<?xml version="1.0" encoding="utf-8"?>
<!-- Generator: Adobe Illustrator 16.0.0, SVG Export Plug-In . SVG Version: 6.00 Build 0)  -->
<!DOCTYPE svg PUBLIC "-//W3C//DTD SVG 1.1//EN" "http://www.w3.org/Graphics/SVG/1.1/DTD/svg11.dtd">
<svg version="1.1" id="Warstwa_1" xmlns="http://www.w3.org/2000/svg" xmlns:xlink="http://www.w3.org/1999/xlink" x="0px" y="0px"
	 width="841.89px" height="595.28px" viewBox="0 0 841.89 595.28" enable-background="new 0 0 841.89 595.28" xml:space="preserve">
<g>
	<path fill="#010202" d="M224.445,242.567c-4.14,11.879-8.819,15.599-13.379,15.599c-4.44,0-7.32-5.58-7.439-11.52
		c-1.801,2.88-3.721,6.36-5.76,9.24c-1.381,1.86-2.4,2.28-3.42,2.28c-2.221,0-2.461-1.98-2.461-4.14c0-6.66,2.94-22.739,6.96-35.579
		c0.841-2.7,4.56-2.1,3.601,1.2c-5.04,17.58-6.301,27.299-7.02,33.119c2.76-3.72,10.259-15.779,19.438-31.559
		c1.319-2.22,4.92-0.96,3.239,2.04c-4.319,7.8-11.52,18.899-11.52,19.259c0,2.4,1.261,12.239,4.561,12.239
		c2.4,0,5.58-2.58,10.02-14.219C222.045,238.547,225.766,238.787,224.445,242.567z"/>
	<path fill="#010202" d="M252.046,245.327c-2.46,7.32-7.26,13.199-12.06,13.199c-2.34,0-4.92-0.96-5.64-6.479
		c-1.681,3.36-4.021,6.24-7.5,6.24c-4.38,0-6.54-3.9-6.54-9.419c0-9.24,3.78-19.259,10.859-19.259c2.82,0,4.681,1.86,5.521,4.32
		c0.3-1.2,0.66-2.28,1.021-3.18c0.42-1.26,1.26-1.86,2.1-1.86c1.08,0,2.1,1.14,1.5,3c-2.58,8.04-3.54,14.579-3.54,17.879
		c0,4.56,1.14,5.58,2.22,5.58c1.92,0,5.64-2.46,9.24-11.819c0.42-1.08,0.959-1.44,1.619-1.44
		C251.746,242.087,252.826,243.047,252.046,245.327z M234.586,242.747l0.121-0.54c-0.9,0.18-1.801-0.12-1.561-1.14
		c1.2-4.74,0.301-8.16-1.98-8.16c-4.26,0-7.199,9.24-7.199,15.059c0,5.22,1.26,7.08,2.88,7.08
		C229.667,255.046,233.326,248.807,234.586,242.747z"/>
	<path fill="#010202" d="M287.086,241.847c-1.74,0.54-4.32,0.78-7.141,0.84c-0.359,1.14-0.779,2.28-1.199,3.3
		c-3.301,8.04-7.32,12.239-11.4,12.239c-3.359,0-4.799-3.66-5.279-8.52c-3,8.22-6.779,8.52-7.979,8.459
		c-3.84-0.18-4.979-4.92-4.979-9.12c0-7.02,2.459-15.719,3.6-18.959c0.359-1.02,1.08-1.44,1.74-1.44c1.14,0,2.159,1.08,1.68,2.64
		c-1.68,5.34-3.48,12.899-3.48,18.299c0,4.08,1.08,5.34,1.86,5.34c2.52,0,6.899-11.1,8.279-18.599c0.36-1.86,1.261-4.92,1.681-6
		c0.359-0.9,1.02-1.26,1.68-1.26c1.08,0,2.1,1.02,1.68,2.58c-1.68,6.24-2.4,11.58-2.4,15.54c0,4.8,0.961,7.8,2.28,7.8
		c1.979,0,5.46-4.44,7.68-10.44l0.84-2.399c-3.12-1.02-5.939-3.6-5.939-8.46c0-2.64,1.021-5.22,2.04-6.479
		c1.439-1.8,2.939-2.16,4.26-2.16c3.3,0,5.22,3.12,5.22,6.72c0,2.28-0.36,4.86-0.96,7.44c1.98-0.12,4.02-0.42,5.52-0.66
		C288.705,238.127,289.545,241.187,287.086,241.847z M277.186,238.727c1.44-5.64,1.62-10.38-0.72-10.38c-1.38,0-2.58,2.58-2.58,5.16
		C273.886,236.447,275.266,238.067,277.186,238.727z"/>
	<path fill="#010202" d="M316.846,245.327c-2.461,7.32-7.26,13.199-12.061,13.199c-2.34,0-4.92-0.96-5.639-6.479
		c-1.681,3.36-4.021,6.24-7.5,6.24c-4.38,0-6.54-3.9-6.54-9.419c0-9.24,3.78-19.259,10.859-19.259c2.82,0,4.681,1.86,5.521,4.32
		c0.299-1.2,0.659-2.28,1.02-3.18c0.42-1.26,1.26-1.86,2.1-1.86c1.08,0,2.1,1.14,1.5,3c-2.58,8.04-3.539,14.579-3.539,17.879
		c0,4.56,1.139,5.58,2.219,5.58c1.92,0,5.641-2.46,9.24-11.819c0.42-1.08,0.96-1.44,1.619-1.44
		C316.545,242.087,317.625,243.047,316.846,245.327z M299.386,242.747l0.12-0.54c-0.9,0.18-1.8-0.12-1.561-1.14
		c1.201-4.74,0.301-8.16-1.979-8.16c-4.26,0-7.2,9.24-7.2,15.059c0,5.22,1.261,7.08,2.881,7.08
		C294.466,255.046,298.126,248.807,299.386,242.747z"/>
	<path fill="#010202" d="M351.104,238.967c0,9.24-3.78,19.259-10.859,19.259c-2.94,0-4.92-1.86-5.76-4.38
		c-1.2,6.72-1.979,11.34-2.64,15.779c-0.36,2.46-3.84,2.1-3.54-0.36c0.42-3.6,3.72-23.159,7.26-39.119
		c0.54-2.459,4.2-1.92,3.54,0.96l-0.301,1.26c1.621-1.68,3.601-2.82,5.76-2.82C348.945,229.547,351.104,233.447,351.104,238.967z
		 M347.445,239.867c0-5.22-1.44-7.08-3.061-7.08c-2.82,0-7.02,5.22-8.34,12.24l-0.119,0.72c0.899-0.12,1.859,0.48,1.379,2.4
		c-0.84,3.36,0.66,6.78,2.94,6.78C344.505,254.926,347.445,245.687,347.445,239.867z"/>
	<path fill="#010202" d="M372.764,240.107c0,9.299-4.139,18.059-10.739,18.059c-4.68,0-6.54-3.96-6.54-8.459
		c0-2.64,0.42-5.52,1.08-7.92c-0.18,0.06-0.359,0.12-0.539,0.12c-0.78,0-1.561-0.78-1.381-2.04c0.66-5.28,5.28-10.919,10.561-10.919
		C369.704,228.947,372.764,232.907,372.764,240.107z M369.164,239.747c0-4.62-1.56-7.56-4.439-7.56c-2.16,0-4.74,2.58-6.119,5.76
		c0.239-0.12,0.479-0.18,0.719-0.18c1.08,0,1.98,1.08,1.381,2.58c-1.141,3.72-1.62,6.78-1.62,9.18c0,3.42,1.079,5.4,3.239,5.4
		C365.924,254.926,369.164,247.486,369.164,239.747z"/>
	<path fill="#010202" d="M397.482,245.626c-1.14,0.18-2.399,0.48-3.6,0.96c0.961,1.8,1.381,3.6,1.381,5.4
		c0,4.14-2.641,6.54-6.061,6.54c-2.46,0-5.039-1.979-5.039-5.459c0-3.18,1.979-5.76,4.499-7.62c-1.86-2.52-3.96-4.86-4.02-7.8
		c0-4.74,4.02-8.939,9.239-8.939c2.52,0,5.16,1.5,5.16,6c0,1.8-0.54,3.42-2.1,3.42c-1.74-0.06-1.44-1.74-1.44-3.42
		c0-1.86-0.899-2.46-1.92-2.46c-2.88,0-5.34,2.52-5.34,5.34c0,1.86,1.8,3.6,3.36,5.52l0.359,0.479c1.801-0.78,3.6-1.26,5.1-1.38
		C399.523,241.967,400.183,245.146,397.482,245.626z M390.523,248.327c-1.62,1.2-2.76,2.76-2.76,4.8c0,1.14,0.6,2.16,1.859,2.16
		c1.62,0,2.04-1.74,2.04-2.64C391.663,251.026,391.184,249.646,390.523,248.327z M429.882,246.707c-2.28,6.3-5.76,11.52-11.34,11.52
		c-3.54,0-6.659-2.22-9.18-4.44c-2.819,4.02-4.62,4.44-6.359,4.44c-2.58,0-4.92-1.56-4.92-5.46c0-4.14,2.159-6.779,5.52-6.779
		c1.5,0,3.3,1.14,5.16,2.52l1.439-2.4c2.4-4.2,3.96-7.26,5.58-10.2c-1.86,0.84-4.02,1.08-4.979,1.08
		c-3.601,0-7.859-1.26-7.859-5.459c0-1.5,0.719-2.64,2.039-2.64c0.9,0,1.561,0.84,1.561,1.8c0,2.52,2.939,2.82,4.499,2.82
		c1.86,0,4.8-0.72,8.28-3.6c1.739-1.44,4.319-0.18,2.819,2.4c-1.68,2.94-7.379,12.839-10.739,18.299c2.58,2.16,5.16,4.2,7.02,4.2
		c1.26,0,4.5-0.24,8.58-10.02C427.782,242.927,431.142,243.167,429.882,246.707z M406.902,251.506c-1.38-1.26-2.459-2.22-3.3-2.22
		c-1.14,0-1.979,1.26-2.04,3.18c-0.06,1.62,0.721,2.52,1.801,2.52C404.263,254.986,405.522,253.606,406.902,251.506z"/>
	<path fill="#010202" d="M464.922,241.847c-1.74,0.54-4.32,0.78-7.14,0.84c-0.36,1.14-0.78,2.28-1.2,3.3
		c-3.3,8.04-7.319,12.239-11.399,12.239c-3.359,0-4.8-3.66-5.279-8.52c-3,8.22-6.78,8.52-7.98,8.459
		c-3.84-0.18-4.979-4.92-4.979-9.12c0-7.02,2.46-15.719,3.6-18.959c0.36-1.02,1.08-1.44,1.74-1.44c1.14,0,2.16,1.08,1.68,2.64
		c-1.68,5.34-3.479,12.899-3.479,18.299c0,4.08,1.08,5.34,1.859,5.34c2.521,0,6.9-11.1,8.28-18.599c0.359-1.86,1.26-4.92,1.68-6
		c0.36-0.9,1.02-1.26,1.68-1.26c1.08,0,2.101,1.02,1.681,2.58c-1.681,6.24-2.4,11.58-2.4,15.54c0,4.8,0.96,7.8,2.28,7.8
		c1.979,0,5.459-4.44,7.68-10.44l0.84-2.399c-3.12-1.02-5.94-3.6-5.94-8.46c0-2.64,1.021-5.22,2.04-6.479
		c1.44-1.8,2.94-2.16,4.26-2.16c3.3,0,5.22,3.12,5.22,6.72c0,2.28-0.359,4.86-0.96,7.44c1.98-0.12,4.021-0.42,5.521-0.66
		C466.542,238.127,467.382,241.187,464.922,241.847z M455.022,238.727c1.439-5.64,1.62-10.38-0.721-10.38
		c-1.38,0-2.579,2.58-2.579,5.16C451.723,236.447,453.103,238.067,455.022,238.727z"/>
	<path fill="#010202" d="M494.682,245.327c-2.46,7.32-7.259,13.199-12.06,13.199c-2.34,0-4.919-0.96-5.64-6.479
		c-1.68,3.36-4.02,6.24-7.499,6.24c-4.38,0-6.54-3.9-6.54-9.419c0-9.24,3.78-19.259,10.859-19.259c2.82,0,4.68,1.86,5.52,4.32
		c0.301-1.2,0.66-2.28,1.021-3.18c0.42-1.26,1.26-1.86,2.1-1.86c1.08,0,2.1,1.14,1.5,3c-2.58,8.04-3.54,14.579-3.54,17.879
		c0,4.56,1.141,5.58,2.22,5.58c1.92,0,5.641-2.46,9.24-11.819c0.42-1.08,0.96-1.44,1.62-1.44
		C494.382,242.087,495.462,243.047,494.682,245.327z M477.223,242.747l0.12-0.54c-0.9,0.18-1.8-0.12-1.56-1.14
		c1.199-4.74,0.3-8.16-1.98-8.16c-4.26,0-7.199,9.24-7.199,15.059c0,5.22,1.26,7.08,2.88,7.08
		C472.303,255.046,475.963,248.807,477.223,242.747z"/>
	<path fill="#010202" d="M497.263,232.367c-1.8,9.419-6.42,32.579-7.199,36.178c-1.021,4.74-3.061,7.32-6.96,7.32
		c-2.82,0-5.16-2.16-5.16-5.82c0-4.62,3.06-10.439,10.5-11.04c1.319-6.899,3.239-16.739,5.159-26.999
		c0.48-1.98,1.561-2.46,2.16-2.46C496.843,229.547,497.683,230.507,497.263,232.367z M487.724,262.426
		c-4.2,1.08-6.181,4.14-6.181,7.32c0,2.34,1.08,2.7,1.92,2.7c1.561,0,2.641-2.22,3.061-4.26L487.724,262.426z M501.402,220.368
		c0,3-2.46,4.56-4.619,4.56c-2.221,0-4.141-1.44-4.141-4.32c0-2.459,1.681-4.5,4.32-4.5
		C499.843,216.108,501.402,218.148,501.402,220.368z M498.583,220.428c0-0.96-0.601-1.68-1.62-1.68c-0.66,0-1.5,0.48-1.62,1.62
		c0.061,0.96,0.48,1.74,1.62,1.74C497.743,222.107,498.583,221.448,498.583,220.428z"/>
	<path fill="#010202" d="M516.463,235.967c0,2.4-0.66,5.88-2.64,5.88c-0.96,0-1.86-0.84-1.5-2.34c0.72-3.24,0.779-7.32-2.16-7.32
		c-4.56,0-7.02,10.32-7.02,15.72c0,4.979,1.92,7.199,4.14,7.199c2.28,0,7.199-1.92,12.3-11.879c0.72-1.38,1.26-1.86,2.039-1.86
		c1.021,0,2.04,1.2,1.021,3.3c-4.02,8.34-9.6,13.74-15.6,13.74c-5.52,0-7.56-4.38-7.56-10.86c0-8.459,3.96-18.719,10.8-18.719
		C514.663,228.827,516.463,232.127,516.463,235.967z"/>
	<path fill="#010202" d="M551.142,245.327c-2.459,7.32-7.26,13.199-12.059,13.199c-2.341,0-4.92-0.96-5.641-6.479
		c-1.68,3.36-4.02,6.24-7.499,6.24c-4.38,0-6.54-3.9-6.54-9.419c0-9.24,3.78-19.259,10.859-19.259c2.82,0,4.68,1.86,5.52,4.32
		c0.301-1.2,0.66-2.28,1.021-3.18c0.42-1.26,1.26-1.86,2.1-1.86c1.08,0,2.101,1.14,1.5,3c-2.58,8.04-3.54,14.579-3.54,17.879
		c0,4.56,1.141,5.58,2.221,5.58c1.92,0,5.64-2.46,9.239-11.819c0.42-1.08,0.96-1.44,1.62-1.44
		C550.842,242.087,551.922,243.047,551.142,245.327z M533.683,242.747l0.12-0.54c-0.9,0.18-1.8-0.12-1.56-1.14
		c1.199-4.74,0.3-8.16-1.98-8.16c-4.26,0-7.199,9.24-7.199,15.059c0,5.22,1.26,7.08,2.88,7.08
		C528.763,255.046,532.423,248.807,533.683,242.747z"/>
	<path fill="#010202" d="M572.263,242.987c-5.88,2.22-10.08,0.06-11.04-4.2c-2.579,5.46-6.419,13.5-7.8,16.26
		c-1.199,2.46-2.22,3.06-3.18,3.06c-2.46,0-2.64-2.82-2.64-3.9c0-6.54,1.32-15.839,3.3-23.039c0.3-1.14,1.14-1.74,1.98-1.74
		c1.079,0,1.979,0.96,1.439,3c-1.38,5.28-3.12,14.279-3.359,20.039c2.76-6.06,8.52-17.939,9.899-20.999
		c0.899-2.04,1.56-2.7,2.64-2.7c0.84,0,1.979,0.54,1.74,2.34c-0.181,1.38-0.78,2.88-0.78,5.04c0,1.98,0.84,4.14,3.479,4.14
		c0.96,0,2.16-0.24,3.601-0.72C573.763,238.667,574.962,241.967,572.263,242.987z"/>
	<path fill="#010202" d="M589.423,243.947c-3.779,0.6-6.719,1.56-8.999,2.64c0.96,1.86,1.38,3.6,1.38,5.4
		c0,4.14-2.64,6.54-6.06,6.54c-2.46,0-5.04-1.979-5.04-5.459c0-1.44,0.6-4.68,4.56-7.5c-1.92-2.58-4.02-4.979-4.079-7.919
		c0-4.74,4.02-8.939,9.239-8.939c2.52,0,5.159,1.5,5.159,6c0,1.8-0.539,3.42-2.1,3.42c-1.74-0.06-1.439-1.74-1.439-3.42
		c0-1.86-0.9-2.46-1.92-2.46c-2.88,0-5.34,2.52-5.34,5.34c0,1.86,1.8,3.6,3.359,5.52l0.42,0.54c2.521-1.26,5.88-2.459,10.439-3.18
		C591.403,240.107,592.123,243.527,589.423,243.947z M578.204,252.646c0-1.5-0.42-2.82-1.021-4.08c-1.979,1.62-2.88,3.3-2.88,4.56
		c0,1.14,0.601,2.16,1.86,2.16C577.784,255.286,578.204,253.546,578.204,252.646z"/>
	<path fill="#010202" d="M620.742,243.287c-2.939,8.28-7.979,14.939-13.14,14.939c-3.899,0-6.239-5.7-6.239-11.52
		c-5.16,8.82-7.44,11.52-9.96,11.52c-2.22,0-2.76-1.8-2.76-4.02c0-8.279,4.859-30.239,7.439-38.218c0.42-1.26,1.32-1.68,2.16-1.68
		c1.2,0,1.979,1.2,1.5,2.7c-3.78,12.359-7.26,30.839-7.62,37.559c2.88-3.54,7.86-11.7,12.06-21.959
		c0.181-0.36,1.141-0.66,2.221-0.66c1.499,0,3.18,0.6,3.18,2.34c0,2.46-3.601,5.64-4.92,7.86c-0.42,0.66,0.779,12.839,3.12,12.839
		c1.439,0,4.979-2.16,9.839-12.78c0.301-0.6,0.9-1.5,1.92-1.5C620.382,240.707,621.342,241.607,620.742,243.287z"/>
	<path fill="#010202" d="M649.361,243.947c-5.1,11.879-10.26,14.279-13.38,14.279c-3.479,0-4.619-3.3-4.619-7.92
		c0-1.08,0.06-2.16,0.18-3.3c-2.64,6.42-5.52,11.1-9.6,11.1c-4.14,0-5.22-3.36-5.22-7.859c0.06-5.4,1.92-14.399,3.54-19.799
		c0.72-2.46,4.26-1.92,3.479,1.26c-2.34,9.66-3.359,15.18-3.359,18.839c0,2.82,0.72,4.26,1.739,4.26c2.101,0,6.42-7.32,11.22-23.039
		c0.66-2.22,1.74-2.82,2.76-2.82c1.2,0,2.22,1.08,1.561,3.54c-1.74,6.78-2.7,13.439-2.7,17.759c0,2.939,0.42,4.68,1.32,4.68
		c1.979,0,6.18-4.02,9.779-12.24c0.36-0.84,1.02-1.44,1.859-1.44C648.941,241.247,649.961,242.087,649.361,243.947z"/>
	<path fill="#010202" d="M358.963,326.546c0,14.19-7.04,35.86-25.96,42.9c-6.05,2.2-8.36-3.74-3.19-5.72
		c6.16-2.42,10.891-6.38,14.41-11.33c-2.529,1.319-5.39,1.979-8.47,1.979c-8.03,0-15.95-4.729-15.95-19.91
		c0-13.529,6.49-32.67,22.439-32.67C354.013,301.796,358.963,310.926,358.963,326.546z M352.253,325.666
		c0-11.88-3.63-17.49-9.899-17.49c-11.441,0-15.951,16.61-15.951,26.07c0,12.87,7.15,13.641,10.451,13.641
		c9.239-0.11,14.189-11.221,15.289-19.03C352.253,327.866,352.253,326.767,352.253,325.666z"/>
	<path fill="#010202" d="M375.901,352.506c-0.989,3.74-2.31,7.7-4.18,13.751c-1.431,4.51-7.261,3.079-6.05-1.761
		c0.99-4.069,2.42-9.79,3.629-13.75C370.842,345.576,377.222,347.666,375.901,352.506z"/>
	<path fill="#010202" d="M418.581,326.546c0,14.19-7.04,35.86-25.96,42.9c-6.051,2.2-8.361-3.74-3.19-5.72
		c6.159-2.42,10.89-6.38,14.409-11.33c-2.529,1.319-5.389,1.979-8.469,1.979c-8.031,0-15.951-4.729-15.951-19.91
		c0-13.529,6.49-32.67,22.44-32.67C413.631,301.796,418.581,310.926,418.581,326.546z M411.87,325.666
		c0-11.88-3.63-17.49-9.899-17.49c-11.44,0-15.95,16.61-15.95,26.07c0,12.87,7.149,13.641,10.45,13.641
		c9.24-0.11,14.189-11.221,15.29-19.03C411.87,327.866,411.87,326.767,411.87,325.666z"/>
	<path fill="#010202" d="M466.429,326.546c0,14.19-7.04,35.86-25.96,42.9c-6.05,2.2-8.36-3.74-3.19-5.72
		c6.16-2.42,10.891-6.38,14.41-11.33c-2.53,1.319-5.39,1.979-8.47,1.979c-8.03,0-15.95-4.729-15.95-19.91
		c0-13.529,6.49-32.67,22.44-32.67C461.479,301.796,466.429,310.926,466.429,326.546z M459.719,325.666
		c0-11.88-3.63-17.49-9.9-17.49c-11.439,0-15.95,16.61-15.95,26.07c0,12.87,7.15,13.641,10.45,13.641
		c9.24-0.11,14.19-11.221,15.29-19.03C459.719,327.866,459.719,326.767,459.719,325.666z"/>
	<path fill="#010202" d="M502.287,302.126c10.56,1.1,15.4,8.03,15.4,16.94c0,2.64-0.771,8.14-3.521,11.22
		c-3.3,3.96-8.91,0.771-5.5-3.96c1.76-2.53,2.2-6.6,2.2-7.48c0-7.92-5.391-9.899-9.79-10.34c-2.2,12.101-2.971,17.271-4.4,25.521
		c6.16,1.76,11.771,4.729,11.771,13.09c0,5.061-4.511,12.21-15.95,12.87l-0.66,3.74c-0.77,4.729-7.37,4.62-6.38-1.101l0.55-3.189
		c-5.39-1.32-9.24-4.84-10.67-8.91c-1.76-4.84,3.74-7.7,6.49-1.98c1.21,2.42,2.97,3.631,5.279,4.29l2.421-14.189
		c-7.48-1.87-15.73-4.181-15.73-13.86c0-12.87,9.68-21.34,21.78-22.66l0.88-5.39c0.88-5.17,7.59-4.84,6.6,0.77L502.287,302.126z
		 M490.517,332.486l3.96-23.54c-7.04,1.54-13.97,6.819-13.97,15.399C480.507,329.517,485.127,331.166,490.517,332.486z
		 M495.797,340.296l-2.2,13.2c5.17-0.439,8.141-3.96,8.141-7.149C501.737,343.156,499.207,341.506,495.797,340.296z"/>
</g>
</svg>
