<?xml version="1.0" encoding="utf-8"?>
<!-- Generator: Adobe Illustrator 16.0.0, SVG Export Plug-In . SVG Version: 6.00 Build 0)  -->
<!DOCTYPE svg PUBLIC "-//W3C//DTD SVG 1.1//EN" "http://www.w3.org/Graphics/SVG/1.1/DTD/svg11.dtd">
<svg version="1.1" id="Warstwa_1" xmlns="http://www.w3.org/2000/svg" xmlns:xlink="http://www.w3.org/1999/xlink" x="0px" y="0px"
	 width="841.89px" height="595.28px" viewBox="0 0 841.89 595.28" enable-background="new 0 0 841.89 595.28" xml:space="preserve">
<g>
	<path fill="#010202" d="M248.786,217.243c3.366,0,3.366,4.026,0.132,4.026c-5.346,0-8.315-0.066-12.803-0.066
		c-2.64,0-2.838-3.96,0.264-3.96H248.786z"/>
	<path fill="#010202" d="M296.568,220.938c0,0.924-0.66,1.848-1.848,1.98l-3.167,0.198c-0.132,0.858-0.396,1.848-0.66,2.706
		c-1.584,5.478-6.335,12.341-13.859,12.341c-8.447,0-9.833-7.655-9.833-12.473c0-18.016,8.117-33.063,18.61-33.063
		c5.478,0,9.503,4.224,9.503,11.615c0,3.233-0.792,7.589-3.234,7.589c-1.386,0-1.848-0.858-1.65-1.98
		c0.396-2.31,0.66-4.422,0.66-5.213c0.066-6.138-2.574-8.25-5.28-8.25c-8.843,0-14.453,16.168-14.387,29.368
		c0,6.137,2.508,8.711,5.346,8.711c4.224,0,8.051-3.167,10.559-9.899l0.462-1.188c-2.244,0.132-4.95,0.264-7.985,0.396
		c-1.716,0.066-2.706-0.396-2.706-1.848c0-0.33,0.198-1.584,1.716-1.716c3.695-0.264,7.853-0.594,15.641-0.99
		C295.578,219.157,296.568,219.817,296.568,220.938z"/>
	<path fill="#010202" d="M334.847,223.974c-2.706,8.051-7.985,14.519-13.265,14.519c-2.574,0-5.412-1.056-6.203-7.127
		c-1.848,3.696-4.422,6.863-8.25,6.863c-4.817,0-7.193-4.29-7.193-10.361c0-10.163,4.158-21.185,11.945-21.185
		c3.102,0,5.147,2.046,6.072,4.752c0.33-1.32,0.726-2.508,1.122-3.498c0.462-1.386,1.386-2.045,2.31-2.045
		c1.188,0,2.31,1.254,1.65,3.299c-2.838,8.843-3.894,16.037-3.894,19.667c0,5.016,1.254,6.137,2.442,6.137
		c2.112,0,6.204-2.706,10.163-13c0.462-1.188,1.056-1.584,1.782-1.584C334.517,220.411,335.705,221.466,334.847,223.974z
		 M315.642,221.137l0.132-0.594c-0.99,0.198-1.98-0.132-1.716-1.254c1.32-5.213,0.33-8.975-2.178-8.975
		c-4.686,0-7.919,10.163-7.919,16.564c0,5.742,1.386,7.788,3.167,7.788C310.23,234.666,314.256,227.802,315.642,221.137z"/>
	<path fill="#010202" d="M356.428,222.457c-4.158,0.66-7.392,1.716-9.899,2.904c1.056,2.046,1.518,3.959,1.518,5.939
		c0,4.554-2.904,7.193-6.666,7.193c-2.706,0-5.543-2.178-5.543-6.005c0-1.584,0.66-5.148,5.016-8.25
		c-2.112-2.838-4.422-5.478-4.488-8.711c0-5.213,4.422-9.833,10.163-9.833c2.772,0,5.676,1.65,5.676,6.6
		c0,1.979-0.594,3.762-2.31,3.762c-1.914-0.066-1.583-1.914-1.583-3.762c0-2.046-0.99-2.706-2.112-2.706
		c-3.168,0-5.874,2.772-5.874,5.874c0,2.046,1.979,3.96,3.695,6.072l0.462,0.594c2.772-1.386,6.468-2.706,11.483-3.498
		C358.606,218.233,359.398,221.995,356.428,222.457z M344.087,232.025c0-1.649-0.462-3.102-1.122-4.487
		c-2.178,1.782-3.168,3.629-3.168,5.016c0,1.254,0.66,2.375,2.046,2.375C343.625,234.929,344.087,233.016,344.087,232.025z"/>
	<path fill="#010202" d="M378.736,222.258c-7.392,14.783-13.067,16.367-16.301,16.367c-4.092,0-5.808-3.234-5.808-6.929
		c0-6.006,1.188-14.057,2.64-21.118h-1.188c-1.914,0-2.376-1.122-2.376-1.848c0-0.66,0.462-1.65,1.452-1.716l2.904-0.132
		c0.858-4.092,1.782-7.589,2.442-9.833c0.726-2.376,4.751-2.244,3.828,1.583c-0.594,2.574-1.254,5.28-1.914,8.051
		c2.441-0.066,5.082-0.132,7.853-0.264c1.518-0.066,2.376,0.594,2.376,1.848c0,0.66-0.528,1.782-2.178,1.848
		c-3.432,0.132-6.401,0.264-8.843,0.33c-1.65,7.788-2.904,15.443-2.904,20.326c0,2.904,0.594,4.224,2.375,4.224
		c1.518,0,6.072-2.31,12.605-14.716c0.396-0.726,1.122-1.32,1.914-1.32C378.802,218.959,379.792,220.146,378.736,222.258z"/>
	<path fill="#010202" d="M401.703,221.4c-6.467,2.442-11.087,0.066-12.143-4.62c-2.837,6.006-7.061,14.849-8.579,17.885
		c-1.32,2.706-2.442,3.366-3.498,3.366c-2.706,0-2.904-3.102-2.904-4.29c0-7.194,1.452-17.423,3.63-25.342
		c0.33-1.254,1.254-1.914,2.178-1.914c1.188,0,2.178,1.056,1.584,3.3c-1.518,5.808-3.432,15.707-3.696,22.042
		c3.036-6.666,9.371-19.732,10.889-23.098c0.99-2.244,1.716-2.97,2.903-2.97c0.924,0,2.178,0.594,1.914,2.574
		c-0.198,1.518-0.858,3.168-0.858,5.543c0,2.178,0.924,4.554,3.828,4.554c1.056,0,2.376-0.264,3.959-0.792
		C403.353,216.649,404.672,220.279,401.703,221.4z"/>
	<path fill="#010202" d="M418.798,218.233c0,10.229-4.554,19.864-11.813,19.864c-5.147,0-7.193-4.355-7.193-9.305
		c0-2.904,0.462-6.072,1.188-8.711c-0.198,0.066-0.396,0.132-0.594,0.132c-0.858,0-1.716-0.858-1.518-2.244
		c0.726-5.808,5.808-12.011,11.615-12.011C415.433,205.958,418.798,210.313,418.798,218.233z M414.838,217.837
		c0-5.082-1.716-8.315-4.883-8.315c-2.376,0-5.214,2.838-6.732,6.335c0.264-0.132,0.528-0.198,0.792-0.198
		c1.188,0,2.178,1.188,1.518,2.837c-1.254,4.092-1.782,7.458-1.782,10.097c0,3.762,1.188,5.939,3.564,5.939
		C411.274,234.533,414.838,226.35,414.838,217.837z"/>
	<path fill="#010202" d="M457.009,222.984c-4.619,9.305-9.568,15.113-14.782,15.113c-4.224,0-5.411-3.036-5.411-6.467
		c0-3.498,0.857-8.711,1.913-13.331c-2.111,3.894-4.289,7.919-5.609,10.097c-3.563,5.741-5.808,9.701-8.447,9.701
		c-2.838,0-3.102-2.442-3.102-5.346c0-6.863,2.771-19.27,4.752-25.209c0.264-0.792,1.188-1.518,1.979-1.518
		c1.254,0,2.441,0.99,1.782,3.102c-2.508,8.184-4.422,19.601-4.686,24.286c3.167-4.884,8.447-14.321,11.614-19.732
		c1.057-1.848,2.178-3.167,3.696-3.167c1.386,0,2.771,1.056,2.771,3.365c0,1.848-2.771,12.737-2.771,17.423
		c0,2.178,0.527,3.3,1.518,3.3c1.716,0,6.335-3.432,11.681-13.463C455.293,218.563,458.593,219.817,457.009,222.984z"/>
	<path fill="#010202" d="M472.191,218.233c0,10.229-4.554,19.864-11.812,19.864c-5.147,0-7.193-4.355-7.193-9.305
		c0-2.904,0.462-6.072,1.188-8.711c-0.198,0.066-0.396,0.132-0.594,0.132c-0.858,0-1.716-0.858-1.518-2.244
		c0.726-5.808,5.807-12.011,11.614-12.011C468.826,205.958,472.191,210.313,472.191,218.233z M468.231,217.837
		c0-5.082-1.716-8.315-4.883-8.315c-2.376,0-5.214,2.838-6.731,6.335c0.264-0.132,0.527-0.198,0.792-0.198
		c1.188,0,2.178,1.188,1.518,2.837c-1.254,4.092-1.782,7.458-1.782,10.097c0,3.762,1.188,5.939,3.564,5.939
		C464.668,234.533,468.231,226.35,468.231,217.837z"/>
	<path fill="#010202" d="M526.9,222.522c-5.939,13.397-11.549,15.509-14.783,15.509c-3.894,0-5.081-3.828-5.081-8.381
		c0-1.914,0.198-3.894,0.462-5.808c-3.3,8.513-7.325,14.255-11.285,14.255c-3.498,0-4.619-3.762-4.619-8.513
		c0-2.64,0.329-5.742,0.857-8.646c-4.686,13.199-8.646,17.555-12.604,17.555c-4.355,0-5.214-4.158-5.214-8.711
		c0-7.325,2.376-17.95,4.092-22.438c0.396-0.99,1.254-1.518,2.111-1.518c1.188,0,2.311,0.99,1.716,3.102
		c-3.035,11.021-4.025,17.95-4.025,21.646c0,3.102,0.726,4.158,1.584,4.158c4.29,0,10.955-21.382,12.604-24.286
		c0.528-0.924,1.452-1.452,2.574-1.452c1.584,0,3.102,1.386,2.573,3.894c-1.649,8.184-2.375,13.991-2.375,17.489
		c0,2.771,0.462,4.157,1.254,4.157c2.31,0,7.259-11.087,10.757-20.392c0.462-1.188,1.584-1.914,2.706-1.914
		c1.386,0,2.837,1.122,2.375,3.563c-0.989,5.412-1.649,10.625-1.649,14.123c0,2.838,0.396,4.62,1.584,4.62
		c2.31,0,6.533-3.762,11.285-13.792c0.462-0.858,1.188-1.386,1.913-1.386C526.834,219.354,527.824,220.345,526.9,222.522z"/>
	<path fill="#010202" d="M530.666,210.644c-2.178,7.721-3.3,14.717-3.3,18.875c0,3.299,0.858,4.949,2.112,4.949
		c1.583,0,5.411-1.188,10.889-13.661c0.396-0.924,1.056-1.452,1.848-1.452c0.99,0,2.112,1.056,1.386,2.97
		c-5.081,13.529-11.021,15.773-14.387,15.773c-4.487,0-5.873-3.96-5.873-7.985c0-6.6,1.451-13.661,3.3-20.59
		C527.564,206.156,531.656,207.014,530.666,210.644z M536.672,197.115c0,3.3-2.706,5.016-5.082,5.016
		c-2.441,0-4.554-1.584-4.554-4.752c0-2.706,1.848-4.883,4.752-4.949C534.956,192.363,536.672,194.673,536.672,197.115z
		 M530.006,197.181c0,0.99,0.462,1.848,1.782,1.848c0.857,0,1.781-0.66,1.781-1.848c0-1.056-0.659-1.848-1.781-1.848
		C530.996,195.333,530.006,195.927,530.006,197.181z"/>
	<path fill="#010202" d="M574.62,223.974c-2.706,8.051-7.985,14.519-13.265,14.519c-2.574,0-5.412-1.056-6.204-7.127
		c-1.848,3.696-4.421,6.863-8.249,6.863c-4.817,0-7.193-4.29-7.193-10.361c0-10.163,4.157-21.185,11.945-21.185
		c3.102,0,5.147,2.046,6.071,4.752c0.33-1.32,0.726-2.508,1.122-3.498c0.462-1.386,1.386-2.045,2.31-2.045
		c1.188,0,2.31,1.254,1.649,3.299c-2.838,8.843-3.894,16.037-3.894,19.667c0,5.016,1.254,6.137,2.442,6.137
		c2.111,0,6.203-2.706,10.163-13c0.462-1.188,1.056-1.584,1.781-1.584C574.29,220.411,575.478,221.466,574.62,223.974z
		 M555.416,221.137l0.132-0.594c-0.99,0.198-1.98-0.132-1.716-1.254c1.319-5.213,0.33-8.975-2.178-8.975
		c-4.686,0-7.92,10.163-7.92,16.564c0,5.742,1.386,7.788,3.168,7.788C550.004,234.666,554.029,227.802,555.416,221.137z"/>
	<path fill="#010202" d="M605.245,217.243c3.365,0,3.365,4.026,0.132,4.026c-5.346,0-8.315-0.066-12.803-0.066
		c-2.64,0-2.838-3.96,0.264-3.96H605.245z"/>
	<path fill="#010202" d="M204.037,301.656c-4.158,0.66-7.392,1.716-9.899,2.904c1.056,2.045,1.518,3.959,1.518,5.939
		c0,4.553-2.904,7.193-6.666,7.193c-2.706,0-5.543-2.178-5.543-6.006c0-1.584,0.66-5.148,5.016-8.25
		c-2.112-2.838-4.422-5.477-4.488-8.711c0-5.213,4.422-9.833,10.163-9.833c2.772,0,5.676,1.65,5.676,6.6
		c0,1.979-0.594,3.762-2.31,3.762c-1.914-0.066-1.583-1.914-1.583-3.762c0-2.046-0.99-2.706-2.112-2.706
		c-3.168,0-5.874,2.772-5.874,5.874c0,2.046,1.979,3.96,3.695,6.072l0.462,0.594c2.772-1.386,6.468-2.706,11.483-3.498
		C206.215,297.433,207.007,301.194,204.037,301.656z M191.696,311.225c0-1.648-0.462-3.102-1.122-4.486
		c-2.178,1.781-3.168,3.629-3.168,5.016c0,1.254,0.66,2.375,2.046,2.375C191.234,314.129,191.696,312.215,191.696,311.225z"/>
	<path fill="#010202" d="M226.345,301.458c-7.392,14.782-13.067,16.366-16.301,16.366c-4.092,0-5.808-3.233-5.808-6.929
		c0-6.006,1.188-14.057,2.64-21.118h-1.188c-1.914,0-2.376-1.122-2.376-1.848c0-0.66,0.462-1.65,1.452-1.716l2.904-0.132
		c0.858-4.092,1.782-7.589,2.442-9.833c0.726-2.376,4.751-2.244,3.828,1.583c-0.594,2.574-1.254,5.28-1.914,8.051
		c2.441-0.066,5.082-0.132,7.853-0.264c1.518-0.066,2.376,0.594,2.376,1.848c0,0.66-0.528,1.782-2.178,1.848
		c-3.432,0.132-6.401,0.264-8.843,0.33c-1.65,7.788-2.904,15.443-2.904,20.327c0,2.903,0.594,4.224,2.376,4.224
		c1.518,0,6.071-2.311,12.604-14.717c0.396-0.726,1.122-1.32,1.914-1.32C226.411,298.159,227.4,299.346,226.345,301.458z"/>
	<path fill="#010202" d="M241.657,297.433c0,10.229-4.553,19.864-11.813,19.864c-5.147,0-7.193-4.355-7.193-9.305
		c0-2.904,0.462-6.072,1.188-8.712c-0.198,0.065-0.396,0.132-0.594,0.132c-0.858,0-1.716-0.858-1.518-2.244
		c0.726-5.808,5.808-12.011,11.615-12.011C238.291,285.158,241.657,289.513,241.657,297.433z M237.697,297.037
		c0-5.082-1.716-8.315-4.884-8.315c-2.375,0-5.213,2.838-6.731,6.335c0.264-0.132,0.528-0.198,0.792-0.198
		c1.188,0,2.178,1.188,1.518,2.837c-1.254,4.092-1.782,7.458-1.782,10.097c0,3.762,1.188,5.939,3.563,5.939
		C234.134,313.732,237.697,305.55,237.697,297.037z"/>
	<path fill="#010202" d="M268.122,301.393c-7.392,14.782-13.265,15.904-16.499,15.904c-4.092,0-5.808-3.234-5.808-6.93
		c0-9.965,4.092-27.124,6.005-34.647h-4.686c-1.122,0-1.716-0.924-1.716-1.716c0-0.99,0.726-1.914,2.244-1.914l13.595-0.066
		c1.65,0,2.376,0.726,2.376,1.65c0,0.924-0.792,2.045-2.244,2.045h-5.346c-2.64,10.823-6.137,26.266-6.137,33.723
		c0,2.904,0.594,4.224,2.375,4.224c1.518,0,6.335-1.913,12.605-14.321c0.396-0.725,1.122-1.319,1.914-1.319
		C267.989,298.026,269.177,299.28,268.122,301.393z"/>
	<path fill="#010202" d="M283.632,297.433c0,10.229-4.553,19.864-11.813,19.864c-5.147,0-7.193-4.355-7.193-9.305
		c0-2.904,0.462-6.072,1.188-8.712c-0.198,0.065-0.396,0.132-0.594,0.132c-0.858,0-1.716-0.858-1.518-2.244
		c0.726-5.808,5.808-12.011,11.615-12.011C280.266,285.158,283.632,289.513,283.632,297.433z M279.672,297.037
		c0-5.082-1.716-8.315-4.884-8.315c-2.375,0-5.213,2.838-6.731,6.335c0.264-0.132,0.528-0.198,0.792-0.198
		c1.188,0,2.178,1.188,1.518,2.837c-1.254,4.092-1.782,7.458-1.782,10.097c0,3.762,1.188,5.939,3.563,5.939
		C276.109,313.732,279.672,305.55,279.672,297.037z M274.129,278.69c0.99-2.31,1.65-3.894,2.838-6.467
		c0.594-1.188,1.583-1.584,2.441-1.452c1.254,0.198,1.98,1.518,1.254,3.102c-0.99,2.112-1.32,3.036-3.102,6.401
		c-0.528,1.056-1.584,1.452-2.376,1.32C274.129,281.396,273.403,280.274,274.129,278.69z"/>
	<path fill="#010202" d="M330.093,299.346c-1.914,0.595-4.751,0.858-7.854,0.925c-0.396,1.254-0.858,2.507-1.32,3.63
		c-3.629,8.843-8.051,13.463-12.539,13.463c-3.696,0-5.28-4.026-5.808-9.371c-3.3,9.041-7.458,9.371-8.777,9.305
		c-4.224-0.198-5.478-5.412-5.478-10.031c0-7.721,2.706-17.291,3.959-20.854c0.396-1.122,1.188-1.584,1.914-1.584
		c1.254,0,2.376,1.188,1.848,2.904c-1.848,5.874-3.828,14.188-3.828,20.128c0,4.488,1.188,5.873,2.046,5.873
		c2.772,0,7.589-12.208,9.107-20.458c0.396-2.046,1.386-5.412,1.848-6.6c0.396-0.99,1.122-1.386,1.848-1.386
		c1.188,0,2.31,1.122,1.848,2.838c-1.848,6.863-2.64,12.737-2.64,17.092c0,5.28,1.056,8.579,2.508,8.579
		c2.178,0,6.006-4.883,8.447-11.482l0.924-2.641c-3.432-1.122-6.534-3.959-6.534-9.305c0-2.904,1.122-5.741,2.244-7.127
		c1.584-1.979,3.234-2.375,4.686-2.375c3.629,0,5.741,3.432,5.741,7.391c0,2.508-0.396,5.346-1.056,8.183
		c2.178-0.132,4.421-0.462,6.071-0.726C331.875,295.255,332.798,298.621,330.093,299.346z M319.204,295.915
		c1.584-6.203,1.782-11.417-0.792-11.417c-1.518,0-2.837,2.838-2.837,5.676C315.574,293.407,317.092,295.188,319.204,295.915z"/>
	<path fill="#010202" d="M363.16,300.93c-3.234,9.107-8.777,16.434-14.453,16.434c-4.29,0-6.863-6.27-6.863-12.672
		c-5.675,9.701-8.183,12.672-10.955,12.672c-2.442,0-3.036-1.98-3.036-4.422c0-9.107,5.346-33.261,8.183-42.039
		c0.462-1.386,1.452-1.848,2.376-1.848c1.32,0,2.178,1.32,1.65,2.97c-4.158,13.595-7.985,33.92-8.381,41.312
		c3.168-3.894,8.646-12.868,13.265-24.154c0.198-0.396,1.254-0.726,2.442-0.726c1.65,0,3.498,0.66,3.498,2.574
		c0,2.706-3.96,6.203-5.412,8.645c-0.462,0.727,0.858,14.123,3.432,14.123c1.584,0,5.478-2.375,10.823-14.057
		c0.33-0.66,0.99-1.65,2.112-1.65C362.764,298.092,363.819,299.082,363.16,300.93z"/>
	<path fill="#010202" d="M366.792,289.843c-2.178,7.721-3.3,14.717-3.3,18.875c0,3.3,0.858,4.949,2.112,4.949
		c1.584,0,5.412-1.188,10.889-13.661c0.396-0.924,1.056-1.452,1.848-1.452c0.99,0,2.112,1.056,1.386,2.97
		c-5.082,13.528-11.021,15.772-14.387,15.772c-4.487,0-5.873-3.96-5.873-7.985c0-6.6,1.452-13.661,3.299-20.59
		C363.691,285.355,367.782,286.213,366.792,289.843z M372.798,276.314c0,3.3-2.706,5.016-5.082,5.016
		c-2.442,0-4.554-1.584-4.554-4.752c0-2.706,1.848-4.883,4.752-4.949C371.082,271.563,372.798,273.873,372.798,276.314z
		 M366.132,276.38c0,0.99,0.462,1.848,1.782,1.848c0.858,0,1.782-0.66,1.782-1.848c0-1.056-0.66-1.848-1.782-1.848
		C367.123,274.533,366.132,275.126,366.132,276.38z"/>
	<path fill="#010202" d="M427.509,304.691c-2.508,6.93-6.335,12.672-12.473,12.672c-3.894,0-7.325-2.442-10.097-4.885
		c-3.102,4.422-5.082,4.885-6.995,4.885c-2.838,0-5.412-1.717-5.412-6.006c0-4.554,2.376-7.457,6.071-7.457
		c1.65,0,3.63,1.254,5.676,2.771l1.584-2.641c2.64-4.619,4.355-7.984,6.138-11.218c-2.046,0.924-4.422,1.188-5.478,1.188
		c-3.959,0-8.645-1.386-8.645-6.006c0-1.649,0.792-2.903,2.244-2.903c0.99,0,1.716,0.924,1.716,1.979
		c0,2.772,3.234,3.102,4.95,3.102c2.046,0,5.279-0.792,9.107-3.96c1.913-1.583,4.751-0.198,3.102,2.64
		c-1.848,3.233-8.117,14.123-11.813,20.128c2.838,2.376,5.676,4.62,7.722,4.62c1.386,0,4.949-0.265,9.438-11.021
		C425.199,300.534,428.896,300.799,427.509,304.691z M402.233,309.972c-1.518-1.386-2.706-2.442-3.63-2.442
		c-1.254,0-2.178,1.387-2.244,3.498c-0.066,1.781,0.792,2.771,1.98,2.771C399.33,313.799,400.715,312.281,402.233,309.972z"/>
	<path fill="#010202" d="M458.859,303.174c-2.706,8.051-7.985,14.52-13.265,14.52c-2.574,0-5.412-1.057-6.204-7.128
		c-1.848,3.696-4.421,6.863-8.249,6.863c-4.817,0-7.193-4.29-7.193-10.36c0-10.164,4.157-21.185,11.945-21.185
		c3.102,0,5.147,2.046,6.071,4.752c0.33-1.32,0.726-2.508,1.122-3.498c0.462-1.386,1.386-2.045,2.31-2.045
		c1.188,0,2.31,1.254,1.649,3.299c-2.838,8.843-3.894,16.037-3.894,19.667c0,5.016,1.254,6.138,2.442,6.138
		c2.111,0,6.203-2.706,10.163-13.001c0.462-1.188,1.056-1.584,1.781-1.584C458.529,299.61,459.717,300.666,458.859,303.174z
		 M439.655,300.336l0.132-0.594c-0.99,0.198-1.98-0.132-1.716-1.254c1.319-5.213,0.33-8.975-2.178-8.975
		c-4.686,0-7.92,10.163-7.92,16.565c0,5.741,1.386,7.787,3.168,7.787C434.243,313.865,438.269,307.002,439.655,300.336z"/>
	<path fill="#010202" d="M489.945,300.93c-3.233,9.107-8.777,16.434-14.452,16.434c-4.29,0-6.863-6.27-6.863-12.672
		c-5.676,9.701-8.184,12.672-10.955,12.672c-2.442,0-3.036-1.98-3.036-4.422c0-9.107,5.346-33.261,8.184-42.039
		c0.462-1.386,1.451-1.848,2.376-1.848c1.319,0,2.178,1.32,1.649,2.97c-4.157,13.595-7.985,33.92-8.381,41.312
		c3.167-3.894,8.645-12.868,13.265-24.154c0.197-0.396,1.254-0.726,2.441-0.726c1.65,0,3.498,0.66,3.498,2.574
		c0,2.706-3.96,6.203-5.412,8.645c-0.462,0.727,0.858,14.123,3.432,14.123c1.584,0,5.478-2.375,10.823-14.057
		c0.33-0.66,0.99-1.65,2.112-1.65C489.55,298.092,490.605,299.082,489.945,300.93z"/>
	<path fill="#010202" d="M508.097,301.393c-7.392,14.782-13.265,15.904-16.499,15.904c-4.091,0-5.808-3.234-5.808-6.93
		c0-9.965,4.092-27.124,6.006-34.647h-4.686c-1.122,0-1.716-0.924-1.716-1.716c0-0.99,0.726-1.914,2.244-1.914l13.595-0.066
		c1.649,0,2.376,0.726,2.376,1.65c0,0.924-0.792,2.045-2.244,2.045h-5.346c-2.64,10.823-6.138,26.266-6.138,33.723
		c0,2.904,0.595,4.224,2.376,4.224c1.518,0,6.336-1.913,12.605-14.321c0.396-0.725,1.121-1.319,1.913-1.319
		C507.965,298.026,509.152,299.28,508.097,301.393z"/>
	<path fill="#010202" d="M539.05,303.174c-2.706,8.051-7.985,14.52-13.265,14.52c-2.574,0-5.412-1.057-6.204-7.128
		c-1.848,3.696-4.421,6.863-8.249,6.863c-4.817,0-7.193-4.29-7.193-10.36c0-10.164,4.157-21.185,11.945-21.185
		c3.102,0,5.147,2.046,6.071,4.752c0.33-1.32,0.726-2.508,1.122-3.498c0.462-1.386,1.386-2.045,2.31-2.045
		c1.188,0,2.31,1.254,1.649,3.299c-2.838,8.843-3.894,16.037-3.894,19.667c0,5.016,1.254,6.138,2.442,6.138
		c2.111,0,6.203-2.706,10.163-13.001c0.462-1.188,1.056-1.584,1.781-1.584C538.72,299.61,539.907,300.666,539.05,303.174z
		 M519.846,300.336l0.132-0.594c-0.99,0.198-1.98-0.132-1.716-1.254c1.319-5.213,0.33-8.975-2.178-8.975
		c-4.686,0-7.92,10.163-7.92,16.565c0,5.741,1.386,7.787,3.168,7.787C514.434,313.865,518.459,307.002,519.846,300.336z"/>
	<path fill="#010202" d="M570.599,303.174c-2.706,8.051-7.985,14.52-13.265,14.52c-2.574,0-5.346-1.387-6.204-7.128
		c-1.781,3.63-4.421,6.863-8.249,6.863c-4.817,0-7.193-4.29-7.193-10.36c0-10.164,4.157-21.185,11.945-21.185
		c2.903,0,4.883,1.782,5.873,4.29c1.386-6.138,3.036-12.605,4.949-18.743c0.396-1.32,1.387-2.046,2.311-2.046
		c1.188,0,2.243,1.254,1.649,3.3c-4.619,15.113-7.523,29.829-7.523,35.373c0,4.554,1.254,6.138,2.442,6.138
		c2.111,0,6.203-2.706,10.163-13.001c0.462-1.188,1.056-1.584,1.781-1.584C570.269,299.61,571.456,300.666,570.599,303.174z
		 M551.395,300.336l0.132-0.594c-0.99,0.198-1.98-0.132-1.716-1.254c1.319-5.213,0.33-8.975-2.178-8.975
		c-4.686,0-7.92,10.163-7.92,16.565c0,5.741,1.386,7.787,3.168,7.787C545.982,313.865,550.141,306.936,551.395,300.336z"/>
	<path fill="#010202" d="M585.714,297.433c0,10.229-4.554,19.864-11.812,19.864c-5.147,0-7.193-4.355-7.193-9.305
		c0-2.904,0.462-6.072,1.188-8.712c-0.198,0.065-0.396,0.132-0.594,0.132c-0.858,0-1.716-0.858-1.518-2.244
		c0.726-5.808,5.807-12.011,11.614-12.011C582.349,285.158,585.714,289.513,585.714,297.433z M581.754,297.037
		c0-5.082-1.716-8.315-4.883-8.315c-2.376,0-5.214,2.838-6.731,6.335c0.264-0.132,0.527-0.198,0.792-0.198
		c1.188,0,2.178,1.188,1.518,2.837c-1.254,4.092-1.782,7.458-1.782,10.097c0,3.762,1.188,5.939,3.564,5.939
		C578.19,313.732,581.754,305.55,581.754,297.037z"/>
	<path fill="#010202" d="M632.174,299.346c-1.914,0.595-4.752,0.858-7.854,0.925c-0.396,1.254-0.857,2.507-1.319,3.63
		c-3.63,8.843-8.052,13.463-12.539,13.463c-3.696,0-5.279-4.026-5.808-9.371c-3.3,9.041-7.457,9.371-8.777,9.305
		c-4.224-0.198-5.478-5.412-5.478-10.031c0-7.721,2.706-17.291,3.96-20.854c0.396-1.122,1.188-1.584,1.913-1.584
		c1.254,0,2.376,1.188,1.849,2.904c-1.849,5.874-3.828,14.188-3.828,20.128c0,4.488,1.188,5.873,2.046,5.873
		c2.771,0,7.59-12.208,9.107-20.458c0.396-2.046,1.386-5.412,1.848-6.6c0.396-0.99,1.122-1.386,1.848-1.386
		c1.188,0,2.31,1.122,1.848,2.838c-1.848,6.863-2.64,12.737-2.64,17.092c0,5.28,1.056,8.579,2.508,8.579
		c2.178,0,6.006-4.883,8.447-11.482l0.924-2.641c-3.432-1.122-6.533-3.959-6.533-9.305c0-2.904,1.122-5.741,2.244-7.127
		c1.584-1.979,3.233-2.375,4.686-2.375c3.63,0,5.741,3.432,5.741,7.391c0,2.508-0.396,5.346-1.056,8.183
		c2.178-0.132,4.422-0.462,6.071-0.726C633.956,295.255,634.88,298.621,632.174,299.346z M621.285,295.915
		c1.583-6.203,1.781-11.417-0.792-11.417c-1.519,0-2.838,2.838-2.838,5.676C617.655,293.407,619.173,295.188,621.285,295.915z"/>
	<path fill="#010202" d="M657.521,303.57c-3.168,7.787-10.031,14.123-17.026,14.123c-8.052,0-9.107-7.393-9.107-13.266
		c0-9.041,4.619-19.336,11.945-19.336c3.629,0,5.873,2.837,5.873,6.731c0,6.269-4.686,14.452-13.858,14.65
		c0.33,4.29,1.781,7.854,5.081,7.722c4.817-0.133,9.701-4.29,13.793-12.209c0.528-1.254,1.32-1.716,2.046-1.716
		C657.322,300.271,658.312,301.458,657.521,303.57z M635.347,303.107c6.6-0.197,9.898-7.193,9.898-10.625
		c0-2.838-1.056-3.762-2.178-3.762C639.372,288.721,635.809,296.047,635.347,303.107z"/>
	<path fill="#010202" d="M249.904,379.801c-6.467,2.441-11.087,0.065-12.143-4.62c-2.837,6.006-7.061,14.849-8.579,17.885
		c-1.32,2.706-2.442,3.366-3.498,3.366c-2.706,0-2.904-3.103-2.904-4.29c0-7.193,1.452-17.423,3.63-25.342
		c0.33-1.254,1.254-1.914,2.178-1.914c1.188,0,2.178,1.056,1.583,3.3c-1.518,5.808-3.432,15.707-3.695,22.042
		c3.036-6.665,9.371-19.732,10.889-23.099c0.99-2.243,1.716-2.969,2.903-2.969c0.924,0,2.178,0.594,1.914,2.573
		c-0.198,1.519-0.858,3.168-0.858,5.544c0,2.178,0.924,4.553,3.828,4.553c1.056,0,2.376-0.264,3.959-0.791
		C251.554,375.049,252.874,378.679,249.904,379.801z"/>
	<path fill="#010202" d="M274.457,382.77c-3.168,7.788-10.031,14.123-17.026,14.123c-8.052,0-9.107-7.391-9.107-13.265
		c0-9.041,4.62-19.336,11.945-19.336c3.63,0,5.874,2.837,5.874,6.731c0,6.27-4.686,14.453-13.859,14.65
		c0.33,4.289,1.782,7.854,5.082,7.722c4.818-0.132,9.701-4.29,13.793-12.209c0.528-1.254,1.32-1.716,2.046-1.716
		C274.259,379.471,275.249,380.658,274.457,382.77z M252.283,382.309c6.6-0.198,9.899-7.193,9.899-10.625
		c0-2.838-1.056-3.762-2.178-3.762C256.309,367.922,252.745,375.247,252.283,382.309z"/>
	<path fill="#010202" d="M295.116,380.856c-4.158,0.659-7.392,1.716-9.899,2.903c1.056,2.047,1.518,3.96,1.518,5.939
		c0,4.555-2.904,7.193-6.666,7.193c-2.706,0-5.543-2.178-5.543-6.005c0-1.584,0.66-5.147,5.016-8.249
		c-2.112-2.838-4.422-5.479-4.488-8.712c0-5.214,4.422-9.833,10.163-9.833c2.772,0,5.676,1.65,5.676,6.6
		c0,1.979-0.594,3.762-2.31,3.762c-1.914-0.066-1.583-1.914-1.583-3.762c0-2.046-0.99-2.706-2.112-2.706
		c-3.168,0-5.874,2.772-5.874,5.874c0,2.045,1.979,3.959,3.695,6.071l0.462,0.594c2.772-1.386,6.468-2.706,11.483-3.497
		C297.293,376.633,298.085,380.395,295.116,380.856z M282.775,390.426c0-1.65-0.462-3.102-1.122-4.488
		c-2.178,1.782-3.168,3.63-3.168,5.016c0,1.254,0.66,2.376,2.046,2.376C282.312,393.329,282.775,391.416,282.775,390.426z"/>
	<path fill="#010202" d="M317.423,380.658c-7.392,14.783-13.067,16.367-16.301,16.367c-4.092,0-5.808-3.234-5.808-6.93
		c0-6.006,1.188-14.057,2.64-21.118h-1.188c-1.914,0-2.376-1.122-2.376-1.849c0-0.659,0.462-1.649,1.452-1.715l2.904-0.133
		c0.858-4.092,1.782-7.589,2.442-9.832c0.726-2.377,4.751-2.244,3.828,1.583c-0.594,2.574-1.254,5.28-1.914,8.052
		c2.441-0.066,5.082-0.133,7.853-0.264c1.518-0.066,2.376,0.594,2.376,1.848c0,0.66-0.528,1.781-2.178,1.848
		c-3.432,0.132-6.401,0.264-8.843,0.33c-1.65,7.787-2.904,15.442-2.904,20.326c0,2.903,0.594,4.224,2.375,4.224
		c1.518,0,6.072-2.31,12.605-14.717c0.396-0.726,1.122-1.319,1.914-1.319C317.489,377.359,318.479,378.547,317.423,380.658z"/>
	<path fill="#010202" d="M348.574,382.374c-2.706,8.052-7.985,14.519-13.265,14.519c-2.574,0-5.412-1.056-6.203-7.127
		c-1.848,3.695-4.422,6.863-8.25,6.863c-4.817,0-7.193-4.289-7.193-10.361c0-10.162,4.158-21.184,11.945-21.184
		c3.102,0,5.147,2.045,6.072,4.752c0.33-1.32,0.726-2.508,1.122-3.498c0.462-1.387,1.386-2.046,2.31-2.046
		c1.188,0,2.31,1.254,1.65,3.3c-2.838,8.843-3.894,16.036-3.894,19.666c0,5.016,1.254,6.138,2.442,6.138
		c2.112,0,6.204-2.706,10.163-13.001c0.462-1.188,1.056-1.584,1.782-1.584C348.244,378.811,349.432,379.866,348.574,382.374z
		 M329.369,379.537l0.132-0.595c-0.99,0.198-1.979-0.132-1.716-1.254c1.32-5.214,0.33-8.976-2.178-8.976
		c-4.686,0-7.919,10.164-7.919,16.564c0,5.742,1.386,7.788,3.167,7.788C323.958,393.065,327.983,386.201,329.369,379.537z"/>
	<path fill="#010202" d="M380.517,380.856c-5.609,13.067-11.285,15.706-14.717,15.706c-3.828,0-5.082-3.629-5.082-8.711
		c0-1.188,0.066-2.375,0.198-3.629c-2.904,7.061-6.072,12.209-10.559,12.209c-4.554,0-5.742-3.696-5.742-8.646
		c0.066-5.939,2.112-15.838,3.894-21.777c0.792-2.706,4.686-2.111,3.828,1.386c-2.574,10.625-3.695,16.696-3.695,20.722
		c0,3.102,0.792,4.686,1.914,4.686c2.31,0,7.062-8.051,12.341-25.342c0.726-2.441,1.914-3.102,3.036-3.102
		c1.32,0,2.442,1.188,1.716,3.895c-1.914,7.457-2.97,14.782-2.97,19.533c0,3.234,0.462,5.148,1.452,5.148
		c2.178,0,6.797-4.422,10.757-13.463c0.396-0.924,1.122-1.584,2.046-1.584C380.055,377.887,381.177,378.811,380.517,380.856z"/>
	<path fill="#010202" d="M403.09,379.801c-6.467,2.441-11.087,0.065-12.143-4.62c-2.837,6.006-7.061,14.849-8.579,17.885
		c-1.32,2.706-2.442,3.366-3.498,3.366c-2.706,0-2.904-3.103-2.904-4.29c0-7.193,1.452-17.423,3.63-25.342
		c0.33-1.254,1.254-1.914,2.178-1.914c1.188,0,2.178,1.056,1.584,3.3c-1.518,5.808-3.432,15.707-3.696,22.042
		c3.036-6.665,9.371-19.732,10.889-23.099c0.99-2.243,1.716-2.969,2.903-2.969c0.924,0,2.178,0.594,1.914,2.573
		c-0.198,1.519-0.858,3.168-0.858,5.544c0,2.178,0.924,4.553,3.828,4.553c1.056,0,2.376-0.264,3.959-0.791
		C404.74,375.049,406.06,378.679,403.09,379.801z"/>
	<path fill="#010202" d="M436.354,382.374c-2.705,8.052-7.985,14.519-13.265,14.519c-2.573,0-5.411-1.056-6.203-7.127
		c-1.848,3.695-4.422,6.863-8.249,6.863c-4.818,0-7.194-4.289-7.194-10.361c0-10.162,4.158-21.184,11.945-21.184
		c3.102,0,5.147,2.045,6.071,4.752c0.33-1.32,0.727-2.508,1.122-3.498c0.462-1.387,1.386-2.046,2.31-2.046
		c1.188,0,2.311,1.254,1.65,3.3c-2.838,8.843-3.894,16.036-3.894,19.666c0,5.016,1.254,6.138,2.441,6.138
		c2.112,0,6.203-2.706,10.163-13.001c0.462-1.188,1.056-1.584,1.782-1.584C436.023,378.811,437.212,379.866,436.354,382.374z
		 M417.149,379.537l0.132-0.595c-0.989,0.198-1.979-0.132-1.716-1.254c1.32-5.214,0.33-8.976-2.178-8.976
		c-4.686,0-7.919,10.164-7.919,16.564c0,5.742,1.386,7.788,3.168,7.788C411.738,393.065,415.764,386.201,417.149,379.537z"/>
	<path fill="#010202" d="M451.668,372.079c0,2.64-0.727,6.468-2.904,6.468c-1.056,0-2.046-0.924-1.649-2.574
		c0.792-3.563,0.857-8.051-2.376-8.051c-5.016,0-7.722,11.351-7.722,17.29c0,5.478,2.112,7.919,4.554,7.919
		c2.508,0,7.92-2.111,13.529-13.066c0.792-1.518,1.386-2.046,2.243-2.046c1.122,0,2.244,1.319,1.122,3.63
		c-4.422,9.173-10.559,15.112-17.158,15.112c-6.071,0-8.315-4.817-8.315-11.944c0-9.306,4.355-20.591,11.879-20.591
		C449.688,364.226,451.668,367.855,451.668,372.079z"/>
	<path fill="#010202" d="M461.897,368.119c-1.98,10.361-7.062,35.835-7.92,39.795c-1.121,5.214-3.365,8.051-7.655,8.051
		c-3.102,0-5.675-2.375-5.675-6.401c0-5.081,3.365-11.482,11.549-12.143c1.452-7.589,3.563-18.413,5.676-29.697
		c0.527-2.178,1.716-2.706,2.375-2.706C461.436,365.018,462.359,366.074,461.897,368.119z M451.404,401.183
		c-4.62,1.188-6.798,4.554-6.798,8.051c0,2.574,1.188,2.971,2.112,2.971c1.716,0,2.903-2.442,3.365-4.687L451.404,401.183z
		 M466.451,354.92c0,3.301-2.706,5.016-5.082,5.016c-2.441,0-4.554-1.583-4.554-4.751c0-2.706,1.848-4.95,4.752-4.95
		C464.735,350.234,466.451,352.479,466.451,354.92z M463.35,354.986c0-1.056-0.66-1.848-1.782-1.848
		c-0.726,0-1.65,0.527-1.782,1.781c0.066,1.057,0.528,1.914,1.782,1.914C462.425,356.834,463.35,356.108,463.35,354.986z"/>
	<path fill="#010202" d="M491.662,382.77c-3.168,7.788-10.031,14.123-17.026,14.123c-8.052,0-9.107-7.391-9.107-13.265
		c0-9.041,4.619-19.336,11.945-19.336c3.629,0,5.873,2.837,5.873,6.731c0,6.27-4.686,14.453-13.858,14.65
		c0.33,4.289,1.781,7.854,5.081,7.722c4.817-0.132,9.701-4.29,13.793-12.209c0.528-1.254,1.32-1.716,2.046-1.716
		C491.464,379.471,492.454,380.658,491.662,382.77z M469.488,382.309c6.599-0.198,9.898-7.193,9.898-10.625
		c0-2.838-1.056-3.762-2.178-3.762C473.514,367.922,469.95,375.247,469.488,382.309z"/>
	<path fill="#010202" d="M499.451,393.131c-0.594,2.244-1.386,4.62-2.508,8.25c-0.857,2.705-4.355,1.848-3.63-1.057
		c0.594-2.441,1.452-5.873,2.178-8.249C496.415,388.974,500.243,390.228,499.451,393.131z"/>
	<path fill="#010202" d="M544.923,380.328c-3.103,2.706-7.656,6.072-12.605,7.523c-2.111,4.949-5.676,8.777-10.361,8.777
		c-5.741,0-7.919-4.883-7.919-11.747c0-7.259,2.112-19.072,7.062-33.987c0.66-1.914,1.716-2.441,2.573-2.441
		c1.32,0,2.244,1.386,1.519,3.498c-1.584,4.619-3.234,10.031-4.62,15.641c1.584-1.98,3.63-3.3,6.138-3.3
		c3.96,0,8.052,2.97,8.052,12.011c0,2.244-0.33,4.686-0.925,7.062c2.97-1.519,5.939-3.827,8.777-6.27
		C545.055,374.982,547.628,377.887,544.923,380.328z M527.5,388.644h-0.066c-4.817,0-7.919-1.649-9.305-5.081v1.451
		c0,4.818,1.056,8.052,3.96,8.052C523.87,393.065,525.916,391.35,527.5,388.644z M520.9,378.019c0,5.544,3.036,7.128,6.533,7.128
		c0.595,0,1.188-0.066,1.782-0.133c0.924-2.64,1.518-5.676,1.518-8.843c0-5.016-1.584-8.382-4.025-8.382
		C523.276,367.789,520.9,373.465,520.9,378.019z"/>
	<path fill="#010202" d="M576.734,382.374c-2.706,8.052-7.985,14.519-13.265,14.519c-2.574,0-5.412-1.056-6.204-7.127
		c-1.848,3.695-4.421,6.863-8.249,6.863c-4.817,0-7.193-4.289-7.193-10.361c0-10.162,4.157-21.184,11.945-21.184
		c3.102,0,5.147,2.045,6.071,4.752c0.33-1.32,0.726-2.508,1.122-3.498c0.462-1.387,1.386-2.046,2.31-2.046
		c1.188,0,2.31,1.254,1.649,3.3c-2.838,8.843-3.894,16.036-3.894,19.666c0,5.016,1.254,6.138,2.442,6.138
		c2.111,0,6.203-2.706,10.163-13.001c0.462-1.188,1.056-1.584,1.781-1.584C576.404,378.811,577.592,379.866,576.734,382.374z
		 M557.53,379.537l0.132-0.595c-0.99,0.198-1.98-0.132-1.716-1.254c1.319-5.214,0.33-8.976-2.178-8.976
		c-4.686,0-7.92,10.164-7.92,16.564c0,5.742,1.386,7.788,3.168,7.788C552.118,393.065,556.144,386.201,557.53,379.537z"/>
	<path fill="#010202" d="M599.968,379.801c-6.468,2.441-11.088,0.065-12.144-4.62c-2.838,6.006-7.062,14.849-8.579,17.885
		c-1.319,2.706-2.441,3.366-3.498,3.366c-2.705,0-2.903-3.103-2.903-4.29c0-7.193,1.452-17.423,3.63-25.342
		c0.33-1.254,1.254-1.914,2.178-1.914c1.188,0,2.178,1.056,1.584,3.3c-1.519,5.808-3.432,15.707-3.696,22.042
		c3.036-6.665,9.371-19.732,10.89-23.099c0.989-2.243,1.716-2.969,2.903-2.969c0.924,0,2.178,0.594,1.914,2.573
		c-0.198,1.519-0.858,3.168-0.858,5.544c0,2.178,0.925,4.553,3.828,4.553c1.056,0,2.376-0.264,3.96-0.791
		C601.617,375.049,602.938,378.679,599.968,379.801z"/>
	<path fill="#010202" d="M618.977,367.262c-1.32,7.061-3.96,20.393-5.742,29.367c1.849,0.132,3.63,0.594,3.63,1.98
		c0,0.791-0.726,1.649-1.979,1.649c-0.198,0-1.254-0.198-2.31-0.264l-1.057,5.279c-1.122,5.213-3.365,8.051-7.655,8.051
		c-3.365,0-5.543-2.441-5.543-5.741c0-7.127,5.609-10.229,11.021-10.889c0.594-2.706,1.188-5.808,1.782-8.91
		c-1.98,4.555-4.95,8.712-8.646,8.712c-4.422,0-5.147-3.497-5.147-7.722c0-6.665,1.914-17.555,3.695-22.636
		c0.33-0.989,1.254-1.584,2.178-1.584c1.122,0,2.112,0.924,1.65,3.036c-2.376,9.438-3.563,16.631-3.563,20.92
		c0,3.168,0.33,4.422,1.649,4.422c1.65,0,6.863-5.346,12.011-26.068c0.528-2.111,1.716-2.705,2.376-2.705
		C618.515,364.16,619.438,365.216,618.977,367.262z M607.625,404.878l0.99-4.619c-4.158,0.924-6.401,3.96-6.401,6.863
		c0,2.046,1.188,2.441,1.848,2.441C606.041,409.563,607.163,407.122,607.625,404.878z"/>
</g>
</svg>
