<?xml version="1.0" encoding="utf-8"?>
<!-- Generator: Adobe Illustrator 16.0.0, SVG Export Plug-In . SVG Version: 6.00 Build 0)  -->
<!DOCTYPE svg PUBLIC "-//W3C//DTD SVG 1.1//EN" "http://www.w3.org/Graphics/SVG/1.1/DTD/svg11.dtd">
<svg version="1.1" id="Warstwa_1" xmlns="http://www.w3.org/2000/svg" xmlns:xlink="http://www.w3.org/1999/xlink" x="0px" y="0px"
	 width="841.89px" height="595.28px" viewBox="0 0 841.89 595.28" enable-background="new 0 0 841.89 595.28" xml:space="preserve">
<g>
	<path fill="#010202" d="M193.573,221.679c-1.913,7.062-7.457,15.773-12.803,15.773c-3.696,0-6.6-2.31-8.976-4.62
		c-2.375,3.696-4.355,4.686-6.6,4.686c-2.771,0-5.543-2.112-5.543-6.138c0-4.355,2.64-7.523,6.336-7.523
		c1.584,0,3.167,0.924,4.816,2.244c1.254-2.64,2.772-5.939,4.687-9.965c2.64-5.609,5.081-11.615,7.062-16.168
		c-2.706,1.452-7.26,2.178-9.899,2.178c-3.366,0-9.239-0.792-9.239-6.467c0-1.254,0.396-3.168,2.244-3.168
		c0.99,0,1.848,0.528,1.848,2.442c0,2.97,2.31,3.432,5.279,3.432c4.025,0,8.777-2.112,11.615-3.894
		c2.574-1.584,4.883-0.066,3.629,3.036c-3.167,8.117-10.36,23.89-14.122,31.414c2.442,2.375,4.817,4.751,6.731,4.751
		c1.781,0,6.203-3.96,9.503-13.859c0.265-0.792,0.99-1.386,1.849-1.386C193.111,218.446,194.168,219.436,193.573,221.679z
		 M168.892,229.797c-1.188-1.188-2.178-2.046-3.036-2.046c-1.451,0-2.244,1.65-2.244,3.366c0,1.518,0.595,2.64,1.783,2.64
		C166.384,233.756,167.439,232.502,168.892,229.797z"/>
	<path fill="#010202" d="M224.66,223.395c-2.706,8.051-7.985,14.519-13.266,14.519c-2.573,0-5.411-1.056-6.203-7.127
		c-1.848,3.696-4.422,6.863-8.249,6.863c-4.817,0-7.193-4.29-7.193-10.361c0-10.163,4.157-21.185,11.944-21.185
		c3.103,0,5.148,2.046,6.072,4.752c0.33-1.32,0.726-2.508,1.121-3.498c0.463-1.386,1.387-2.045,2.311-2.045
		c1.188,0,2.31,1.254,1.65,3.299c-2.838,8.843-3.895,16.037-3.895,19.667c0,5.016,1.254,6.137,2.441,6.137
		c2.112,0,6.204-2.706,10.164-13c0.461-1.188,1.056-1.584,1.781-1.584C224.33,219.832,225.518,220.887,224.66,223.395z
		 M205.455,220.558l0.133-0.594c-0.99,0.198-1.98-0.132-1.717-1.254c1.32-5.213,0.33-8.975-2.178-8.975
		c-4.686,0-7.918,10.163-7.918,16.564c0,5.742,1.385,7.788,3.167,7.788C200.044,234.086,204.07,227.223,205.455,220.558z"/>
	<path fill="#010202" d="M252.381,221.35c-3.102,2.706-7.656,6.071-12.605,7.523c-2.111,4.95-5.676,8.777-10.361,8.777
		c-5.741,0-7.919-4.883-7.919-11.747c0-7.259,2.112-19.072,7.062-33.987c0.66-1.914,1.716-2.442,2.574-2.442
		c1.319,0,2.243,1.386,1.518,3.498c-1.584,4.62-3.234,10.031-4.62,15.641c1.584-1.979,3.63-3.299,6.138-3.299
		c3.959,0,8.051,2.97,8.051,12.011c0,2.244-0.33,4.686-0.924,7.062c2.971-1.518,5.939-3.828,8.777-6.27
		C252.512,216.004,255.086,218.908,252.381,221.35z M234.958,229.665h-0.065c-4.818,0-7.92-1.65-9.306-5.082v1.452
		c0,4.817,1.056,8.051,3.96,8.051C231.328,234.086,233.374,232.371,234.958,229.665z M228.358,219.04
		c0,5.543,3.036,7.127,6.534,7.127c0.594,0,1.188-0.066,1.781-0.132c0.924-2.64,1.518-5.676,1.518-8.843
		c0-5.016-1.584-8.381-4.025-8.381C230.734,208.811,228.358,214.486,228.358,219.04z"/>
	<path fill="#010202" d="M276.273,220.821c-6.467,2.442-11.087,0.066-12.143-4.62c-2.838,6.006-7.062,14.849-8.58,17.885
		c-1.319,2.706-2.441,3.366-3.497,3.366c-2.706,0-2.903-3.102-2.903-4.29c0-7.194,1.451-17.423,3.629-25.342
		c0.33-1.254,1.254-1.914,2.178-1.914c1.188,0,2.178,1.056,1.584,3.3c-1.518,5.808-3.432,15.707-3.695,22.042
		c3.035-6.666,9.371-19.732,10.889-23.098c0.99-2.244,1.717-2.97,2.904-2.97c0.924,0,2.178,0.594,1.914,2.574
		c-0.199,1.518-0.858,3.168-0.858,5.543c0,2.178,0.924,4.554,3.827,4.554c1.057,0,2.377-0.264,3.96-0.792
		C277.924,216.07,279.243,219.7,276.273,220.821z"/>
	<path fill="#010202" d="M309.537,223.395c-2.706,8.051-7.985,14.519-13.266,14.519c-2.573,0-5.411-1.056-6.203-7.127
		c-1.848,3.696-4.422,6.863-8.249,6.863c-4.817,0-7.193-4.29-7.193-10.361c0-10.163,4.157-21.185,11.944-21.185
		c3.103,0,5.148,2.046,6.072,4.752c0.33-1.32,0.726-2.508,1.121-3.498c0.463-1.386,1.387-2.045,2.311-2.045
		c1.188,0,2.31,1.254,1.65,3.299c-2.838,8.843-3.895,16.037-3.895,19.667c0,5.016,1.254,6.137,2.441,6.137
		c2.112,0,6.204-2.706,10.164-13c0.461-1.188,1.056-1.584,1.781-1.584C309.207,219.832,310.395,220.887,309.537,223.395z
		 M290.332,220.558l0.133-0.594c-0.99,0.198-1.98-0.132-1.717-1.254c1.32-5.213,0.33-8.975-2.178-8.975
		c-4.686,0-7.918,10.163-7.918,16.564c0,5.742,1.385,7.788,3.167,7.788C284.921,234.086,288.947,227.223,290.332,220.558z"/>
	<path fill="#010202" d="M340.754,222.405c-4.619,9.305-9.568,15.113-14.782,15.113c-4.224,0-5.411-3.036-5.411-6.467
		c0-3.498,0.857-8.711,1.914-13.331c-2.112,3.894-4.291,7.919-5.61,10.097c-3.563,5.741-5.808,9.701-8.447,9.701
		c-2.837,0-3.102-2.442-3.102-5.346c0-6.863,2.772-19.27,4.751-25.209c0.265-0.792,1.188-1.518,1.98-1.518
		c1.254,0,2.441,0.99,1.781,3.102c-2.508,8.184-4.421,19.601-4.686,24.286c3.168-4.884,8.447-14.321,11.615-19.732
		c1.057-1.848,2.178-3.167,3.695-3.167c1.387,0,2.772,1.056,2.772,3.365c0,1.848-2.772,12.737-2.772,17.423
		c0,2.178,0.529,3.3,1.519,3.3c1.716,0,6.335-3.432,11.681-13.463C339.039,217.984,342.338,219.238,340.754,222.405z"/>
	<path fill="#010202" d="M344.52,210.064c-2.178,7.721-3.3,14.717-3.3,18.875c0,3.299,0.858,4.949,2.112,4.949
		c1.584,0,5.411-1.188,10.889-13.661c0.396-0.924,1.056-1.452,1.848-1.452c0.99,0,2.111,1.056,1.387,2.97
		c-5.082,13.529-11.021,15.773-14.388,15.773c-4.487,0-5.873-3.96-5.873-7.985c0-6.6,1.452-13.661,3.3-20.59
		C341.418,205.577,345.51,206.435,344.52,210.064z M350.525,196.536c0,3.3-2.706,5.016-5.082,5.016
		c-2.441,0-4.554-1.584-4.554-4.752c0-2.706,1.849-4.883,4.752-4.949C348.809,191.784,350.525,194.094,350.525,196.536z
		 M343.859,196.602c0,0.99,0.462,1.848,1.782,1.848c0.858,0,1.782-0.66,1.782-1.848c0-1.056-0.66-1.848-1.782-1.848
		C344.85,194.754,343.859,195.348,343.859,196.602z"/>
	<path fill="#010202" d="M388.475,223.395c-2.707,8.051-7.986,14.519-13.266,14.519c-2.574,0-5.412-1.056-6.203-7.127
		c-1.848,3.696-4.422,6.863-8.25,6.863c-4.816,0-7.193-4.29-7.193-10.361c0-10.163,4.158-21.185,11.945-21.185
		c3.102,0,5.147,2.046,6.072,4.752c0.329-1.32,0.725-2.508,1.121-3.498c0.462-1.386,1.387-2.045,2.311-2.045
		c1.188,0,2.309,1.254,1.649,3.299c-2.838,8.843-3.894,16.037-3.894,19.667c0,5.016,1.254,6.137,2.441,6.137
		c2.111,0,6.203-2.706,10.163-13c0.462-1.188,1.056-1.584,1.782-1.584C388.145,219.832,389.332,220.887,388.475,223.395z
		 M369.27,220.558l0.132-0.594c-0.989,0.198-1.979-0.132-1.716-1.254c1.32-5.213,0.33-8.975-2.178-8.975
		c-4.686,0-7.919,10.163-7.919,16.564c0,5.742,1.386,7.788,3.167,7.788C363.857,234.086,367.884,227.223,369.27,220.558z"/>
	<path fill="#010202" d="M421.673,221.877c-4.158,0.66-7.392,1.716-9.899,2.904c1.056,2.046,1.518,3.959,1.518,5.939
		c0,4.554-2.903,7.193-6.665,7.193c-2.706,0-5.544-2.178-5.544-6.005c0-1.584,0.66-5.148,5.016-8.25
		c-2.111-2.838-4.422-5.478-4.487-8.711c0-5.213,4.422-9.833,10.163-9.833c2.771,0,5.676,1.65,5.676,6.6
		c0,1.979-0.594,3.762-2.31,3.762c-1.914-0.066-1.584-1.914-1.584-3.762c0-2.046-0.99-2.706-2.112-2.706
		c-3.167,0-5.873,2.772-5.873,5.874c0,2.046,1.979,3.96,3.695,6.072l0.462,0.594c2.772-1.386,6.468-2.706,11.483-3.498
		C423.851,217.654,424.643,221.416,421.673,221.877z M409.332,231.446c0-1.649-0.462-3.102-1.122-4.487
		c-2.178,1.782-3.168,3.629-3.168,5.016c0,1.254,0.66,2.375,2.046,2.375C408.87,234.35,409.332,232.437,409.332,231.446z"/>
	<path fill="#010202" d="M428.537,210.064c-2.178,7.721-3.3,14.717-3.3,18.875c0,3.299,0.858,4.949,2.112,4.949
		c1.583,0,5.411-1.188,10.889-13.661c0.396-0.924,1.056-1.452,1.848-1.452c0.99,0,2.112,1.056,1.386,2.97
		c-5.081,13.529-11.021,15.773-14.387,15.773c-4.487,0-5.873-3.96-5.873-7.985c0-6.6,1.451-13.661,3.3-20.59
		C425.436,205.577,429.527,206.435,428.537,210.064z M434.543,196.536c0,3.3-2.706,5.016-5.082,5.016
		c-2.441,0-4.554-1.584-4.554-4.752c0-2.706,1.848-4.883,4.752-4.949C432.827,191.784,434.543,194.094,434.543,196.536z
		 M427.877,196.602c0,0.99,0.462,1.848,1.782,1.848c0.857,0,1.781-0.66,1.781-1.848c0-1.056-0.659-1.848-1.781-1.848
		C428.867,194.754,427.877,195.348,427.877,196.602z"/>
	<path fill="#010202" d="M456.784,243.919c-1.584,2.376-4.884,4.158-7.655,4.158c-3.168,0-4.95-2.244-4.95-5.346
		c0-1.254,0.396-3.102,1.122-4.95c-6.533-0.924-7.457-7.655-7.457-13.133c0-9.041,4.619-19.336,11.945-19.336
		c3.629,0,5.873,2.837,5.873,6.731c0,6.599-4.422,14.453-13.858,14.65c0.33,4.29,1.781,7.721,5.081,7.721h0.265
		c3.233-4.949,7.193-7.853,9.041-7.853c1.716,0,2.178,1.518,2.178,2.64c-0.066,1.98-2.64,7.326-8.909,8.513
		c-1.056,2.112-1.584,3.96-1.584,5.082c0,0.99,0.396,1.716,1.452,1.716c1.121,0,2.837-0.462,4.686-2.706
		c0.462-0.594,1.056-0.858,1.584-0.858C456.851,240.95,457.906,242.204,456.784,243.919z M441.804,223.329
		c6.929-0.264,9.898-7.127,9.898-10.625c0-2.838-1.056-3.762-2.178-3.762C445.829,208.942,442.266,216.268,441.804,223.329z"/>
	<path fill="#010202" d="M495.986,216.4c0,10.163-4.158,21.184-11.945,21.184c-3.233,0-5.411-2.046-6.335-4.817
		c-1.32,7.391-2.179,12.473-2.904,17.356c-0.396,2.706-4.224,2.31-3.894-0.396c0.462-3.96,4.092-25.474,7.985-43.028
		c0.594-2.706,4.619-2.112,3.894,1.056l-0.33,1.386c1.782-1.848,3.96-3.102,6.336-3.102
		C493.61,206.039,495.986,210.328,495.986,216.4z M491.96,217.39c0-5.741-1.583-7.787-3.365-7.787
		c-3.102,0-7.722,5.741-9.173,13.463l-0.133,0.792c0.99-0.132,2.046,0.528,1.519,2.64c-0.924,3.695,0.726,7.457,3.233,7.457
		C488.727,233.954,491.96,223.791,491.96,217.39z"/>
	<path fill="#010202" d="M519.812,217.654c0,10.229-4.554,19.864-11.812,19.864c-5.147,0-7.193-4.355-7.193-9.305
		c0-2.904,0.462-6.072,1.188-8.711c-0.198,0.066-0.396,0.132-0.594,0.132c-0.858,0-1.716-0.858-1.518-2.244
		c0.726-5.808,5.807-12.011,11.614-12.011C516.446,205.379,519.812,209.734,519.812,217.654z M515.852,217.258
		c0-5.082-1.716-8.315-4.883-8.315c-2.376,0-5.214,2.838-6.731,6.335c0.264-0.132,0.527-0.198,0.792-0.198
		c1.188,0,2.178,1.188,1.518,2.837c-1.254,4.092-1.782,7.458-1.782,10.097c0,3.762,1.188,5.939,3.564,5.939
		C512.288,233.954,515.852,225.771,515.852,217.258z"/>
	<path fill="#010202" d="M557.759,223.395c-2.706,8.051-7.985,14.519-13.265,14.519c-2.574,0-5.346-1.386-6.204-7.127
		c-1.781,3.629-4.421,6.863-8.249,6.863c-4.817,0-7.193-4.29-7.193-10.361c0-10.163,4.157-21.185,11.945-21.185
		c2.903,0,4.883,1.782,5.873,4.29c1.386-6.138,3.036-12.605,4.949-18.743c0.396-1.32,1.387-2.046,2.311-2.046
		c1.188,0,2.243,1.254,1.649,3.3c-4.619,15.113-7.523,29.83-7.523,35.373c0,4.554,1.254,6.137,2.442,6.137
		c2.111,0,6.203-2.706,10.163-13c0.462-1.188,1.056-1.584,1.781-1.584C557.429,219.832,558.616,220.887,557.759,223.395z
		 M538.555,220.558l0.132-0.594c-0.99,0.198-1.98-0.132-1.716-1.254c1.319-5.213,0.33-8.975-2.178-8.975
		c-4.686,0-7.92,10.163-7.92,16.564c0,5.742,1.386,7.788,3.168,7.788C533.143,234.086,537.301,227.157,538.555,220.558z"/>
	<path fill="#010202" d="M589.176,223.395c-2.706,8.051-7.985,14.519-13.265,14.519c-2.574,0-5.412-1.056-6.204-7.127
		c-1.848,3.696-4.421,6.863-8.249,6.863c-4.817,0-7.193-4.29-7.193-10.361c0-10.163,4.157-21.185,11.945-21.185
		c3.102,0,5.147,2.046,6.071,4.752c0.33-1.32,0.726-2.508,1.122-3.498c0.462-1.386,1.386-2.045,2.31-2.045
		c1.188,0,2.31,1.254,1.649,3.299c-2.838,8.843-3.894,16.037-3.894,19.667c0,5.016,1.254,6.137,2.442,6.137
		c2.111,0,6.203-2.706,10.163-13c0.462-1.188,1.056-1.584,1.781-1.584C588.846,219.832,590.033,220.887,589.176,223.395z
		 M569.972,220.558l0.132-0.594c-0.99,0.198-1.98-0.132-1.716-1.254c1.319-5.213,0.33-8.975-2.178-8.975
		c-4.686,0-7.92,10.163-7.92,16.564c0,5.742,1.386,7.788,3.168,7.788C564.56,234.086,568.585,227.223,569.972,220.558z"/>
	<path fill="#010202" d="M627.719,219.567c-1.914,0.594-4.752,0.858-7.854,0.924c-0.396,1.253-0.857,2.507-1.319,3.629
		c-3.63,8.843-8.052,13.463-12.539,13.463c-3.696,0-5.279-4.026-5.808-9.371c-3.3,9.041-7.457,9.371-8.777,9.305
		c-4.224-0.198-5.478-5.412-5.478-10.031c0-7.721,2.706-17.291,3.96-20.854c0.396-1.122,1.188-1.584,1.913-1.584
		c1.254,0,2.376,1.188,1.849,2.904c-1.849,5.874-3.828,14.188-3.828,20.128c0,4.487,1.188,5.873,2.046,5.873
		c2.771,0,7.59-12.209,9.107-20.458c0.396-2.046,1.386-5.412,1.848-6.6c0.396-0.99,1.122-1.386,1.848-1.386
		c1.188,0,2.31,1.122,1.848,2.838c-1.848,6.863-2.64,12.737-2.64,17.092c0,5.28,1.056,8.58,2.508,8.58
		c2.178,0,6.006-4.884,8.447-11.483l0.924-2.64c-3.432-1.122-6.533-3.959-6.533-9.305c0-2.904,1.122-5.742,2.244-7.127
		c1.584-1.979,3.233-2.375,4.686-2.375c3.63,0,5.741,3.432,5.741,7.391c0,2.508-0.396,5.346-1.056,8.183
		c2.178-0.132,4.422-0.462,6.071-0.726C629.501,215.476,630.425,218.842,627.719,219.567z M616.83,216.136
		c1.583-6.203,1.781-11.417-0.792-11.417c-1.519,0-2.838,2.838-2.838,5.676C613.2,213.628,614.718,215.41,616.83,216.136z"/>
	<path fill="#010202" d="M660.455,223.395c-2.706,8.051-7.985,14.519-13.265,14.519c-2.574,0-5.412-1.056-6.204-7.127
		c-1.848,3.696-4.421,6.863-8.249,6.863c-4.817,0-7.193-4.29-7.193-10.361c0-10.163,4.157-21.185,11.945-21.185
		c3.102,0,5.147,2.046,6.071,4.752c0.33-1.32,0.726-2.508,1.122-3.498c0.462-1.386,1.386-2.045,2.31-2.045
		c1.188,0,2.31,1.254,1.649,3.299c-2.838,8.843-3.894,16.037-3.894,19.667c0,5.016,1.254,6.137,2.442,6.137
		c2.111,0,6.203-2.706,10.163-13c0.462-1.188,1.056-1.584,1.781-1.584C660.125,219.832,661.312,220.887,660.455,223.395z
		 M641.251,220.558l0.132-0.594c-0.99,0.198-1.98-0.132-1.716-1.254c1.319-5.213,0.33-8.975-2.178-8.975
		c-4.686,0-7.92,10.163-7.92,16.564c0,5.742,1.386,7.788,3.168,7.788C635.839,234.086,639.864,227.223,641.251,220.558z"/>
	<path fill="#010202" d="M675.77,213.1c0,2.64-0.727,6.467-2.904,6.467c-1.056,0-2.046-0.924-1.649-2.574
		c0.792-3.563,0.857-8.051-2.376-8.051c-5.016,0-7.722,11.351-7.722,17.291c0,5.478,2.112,7.919,4.554,7.919
		c2.508,0,7.92-2.112,13.529-13.067c0.792-1.518,1.386-2.046,2.243-2.046c1.122,0,2.244,1.32,1.122,3.63
		c-4.422,9.173-10.559,15.112-17.158,15.112c-6.071,0-8.315-4.817-8.315-11.945c0-9.305,4.355-20.59,11.879-20.59
		C673.789,205.247,675.77,208.876,675.77,213.1z M674.449,194.094c-0.99,2.112-1.32,3.036-3.102,6.401
		c-0.528,1.056-1.584,1.452-2.376,1.32c-1.056-0.198-1.782-1.32-1.056-2.904c0.989-2.31,1.649-3.894,2.838-6.467
		c0.594-1.188,1.584-1.584,2.441-1.452C674.449,191.19,675.175,192.51,674.449,194.094z"/>
	<path fill="#010202" d="M286.568,298.767c-1.914,0.594-4.752,0.858-7.854,0.924c-0.396,1.254-0.857,2.508-1.32,3.629
		c-3.629,8.844-8.051,13.463-12.538,13.463c-3.696,0-5.28-4.025-5.808-9.371c-3.3,9.041-7.457,9.371-8.777,9.306
		c-4.224-0.198-5.478-5.411-5.478-10.031c0-7.721,2.706-17.291,3.96-20.854c0.396-1.122,1.188-1.584,1.914-1.584
		c1.254,0,2.375,1.188,1.848,2.904c-1.848,5.874-3.828,14.188-3.828,20.128c0,4.487,1.188,5.874,2.046,5.874
		c2.772,0,7.589-12.209,9.107-20.458c0.396-2.046,1.386-5.412,1.848-6.6c0.396-0.99,1.122-1.386,1.848-1.386
		c1.188,0,2.31,1.122,1.849,2.838c-1.849,6.863-2.641,12.737-2.641,17.092c0,5.279,1.057,8.58,2.508,8.58
		c2.178,0,6.006-4.885,8.447-11.484l0.924-2.639c-3.432-1.123-6.533-3.96-6.533-9.306c0-2.904,1.122-5.741,2.244-7.127
		c1.584-1.979,3.233-2.375,4.686-2.375c3.629,0,5.741,3.432,5.741,7.391c0,2.508-0.396,5.346-1.056,8.183
		c2.178-0.132,4.422-0.462,6.071-0.726C288.35,294.676,289.273,298.042,286.568,298.767z M275.68,295.335
		c1.584-6.203,1.781-11.417-0.793-11.417c-1.518,0-2.837,2.838-2.837,5.676C272.05,292.828,273.567,294.609,275.68,295.335z"/>
	<path fill="#010202" d="M304.918,296.854c0,10.229-4.553,19.864-11.812,19.864c-5.148,0-7.193-4.355-7.193-9.306
		c0-2.903,0.461-6.071,1.188-8.711c-0.197,0.066-0.396,0.132-0.594,0.132c-0.857,0-1.716-0.858-1.518-2.244
		c0.726-5.808,5.807-12.011,11.615-12.011C301.553,284.579,304.918,288.934,304.918,296.854z M300.959,296.458
		c0-5.082-1.717-8.315-4.885-8.315c-2.375,0-5.213,2.838-6.73,6.335c0.264-0.132,0.527-0.198,0.791-0.198
		c1.188,0,2.179,1.188,1.519,2.837c-1.254,4.092-1.782,7.457-1.782,10.098c0,3.762,1.188,5.939,3.564,5.939
		C297.395,313.154,300.959,304.971,300.959,296.458z M295.415,278.111c0.989-2.31,1.649-3.894,2.838-6.467
		c0.594-1.188,1.583-1.584,2.441-1.452c1.254,0.198,1.979,1.518,1.254,3.102c-0.989,2.112-1.319,3.036-3.102,6.401
		c-0.528,1.056-1.584,1.452-2.376,1.32C295.415,280.817,294.689,279.695,295.415,278.111z"/>
	<path fill="#010202" d="M342.866,302.595c-2.706,8.052-7.985,14.519-13.265,14.519c-2.574,0-5.346-1.386-6.203-7.127
		c-1.783,3.63-4.422,6.863-8.25,6.863c-4.817,0-7.193-4.289-7.193-10.361c0-10.163,4.158-21.184,11.945-21.184
		c2.903,0,4.883,1.782,5.873,4.29c1.386-6.138,3.035-12.605,4.949-18.743c0.396-1.32,1.387-2.046,2.311-2.046
		c1.188,0,2.244,1.254,1.649,3.3c-4.62,15.113-7.523,29.83-7.523,35.373c0,4.554,1.254,6.138,2.442,6.138
		c2.111,0,6.203-2.706,10.162-13.001c0.463-1.188,1.057-1.584,1.783-1.584C342.536,299.031,343.725,300.087,342.866,302.595z
		 M323.662,299.758l0.132-0.595c-0.99,0.198-1.979-0.132-1.716-1.254c1.32-5.213,0.33-8.975-2.178-8.975
		c-4.686,0-7.92,10.164-7.92,16.564c0,5.742,1.387,7.788,3.168,7.788C318.25,313.286,322.408,306.356,323.662,299.758z"/>
	<path fill="#010202" d="M373.82,300.352c-3.234,9.107-8.777,16.432-14.453,16.432c-4.29,0-6.863-6.27-6.863-12.67
		c-5.676,9.701-8.184,12.67-10.955,12.67c-2.442,0-3.036-1.979-3.036-4.421c0-9.107,5.346-33.261,8.183-42.039
		c0.463-1.386,1.453-1.848,2.377-1.848c1.319,0,2.178,1.32,1.649,2.97c-4.157,13.595-7.985,33.921-8.382,41.312
		c3.168-3.894,8.646-12.869,13.266-24.154c0.197-0.396,1.254-0.726,2.441-0.726c1.65,0,3.498,0.66,3.498,2.574
		c0,2.706-3.96,6.203-5.412,8.646c-0.461,0.726,0.858,14.123,3.432,14.123c1.584,0,5.479-2.377,10.823-14.058
		c0.33-0.66,0.99-1.65,2.112-1.65C373.424,297.513,374.479,298.503,373.82,300.352z"/>
	<path fill="#010202" d="M389.001,323.119c-1.584,2.376-4.884,4.158-7.655,4.158c-3.168,0-4.949-2.244-4.949-5.346
		c0-1.254,0.396-3.102,1.121-4.95c-6.533-0.924-7.457-7.655-7.457-13.133c0-9.041,4.619-19.336,11.945-19.336
		c3.629,0,5.873,2.837,5.873,6.731c0,6.599-4.422,14.453-13.859,14.65c0.33,4.289,1.783,7.722,5.082,7.722h0.264
		c3.234-4.95,7.193-7.854,9.041-7.854c1.717,0,2.179,1.518,2.179,2.64c-0.066,1.98-2.64,7.325-8.909,8.514
		c-1.057,2.111-1.584,3.959-1.584,5.081c0,0.99,0.396,1.716,1.451,1.716c1.123,0,2.838-0.462,4.686-2.705
		c0.463-0.594,1.057-0.858,1.584-0.858C389.066,320.149,390.123,321.403,389.001,323.119z M374.02,302.529
		c6.93-0.264,9.9-7.128,9.9-10.625c0-2.838-1.057-3.762-2.178-3.762C378.046,288.142,374.482,295.468,374.02,302.529z"/>
	<path fill="#010202" d="M460.54,304.113c-2.508,6.929-6.335,12.67-12.473,12.67c-3.894,0-7.325-2.441-10.097-4.883
		c-3.102,4.422-5.082,4.883-6.996,4.883c-2.837,0-5.411-1.715-5.411-6.005c0-4.554,2.376-7.458,6.071-7.458
		c1.65,0,3.63,1.254,5.676,2.772l1.584-2.64c2.64-4.62,4.355-7.985,6.138-11.219c-2.046,0.924-4.422,1.188-5.478,1.188
		c-2.244,0-5.346-0.594-6.798-2.178c-5.081,11.681-12.671,25.737-21.316,25.737c-6.071,0-8.315-4.817-8.315-11.944
		c0-9.306,4.356-20.591,11.88-20.591c4.817,0,6.797,3.63,6.797,7.854c0,2.64-0.726,6.467-2.903,6.467
		c-0.858,0-2.046-0.924-1.65-2.574c0.792-3.563,0.858-8.051-2.376-8.051c-5.016,0-7.721,11.351-7.721,17.291
		c0,5.478,2.111,7.919,4.554,7.919c5.675,0,14.387-14.98,18.94-26.463c0.527-1.188,1.056-2.375,2.508-2.375
		c0.989,0,1.716,0.924,1.716,1.979c0,2.574,3.233,3.102,4.949,3.102c2.046,0,5.279-0.792,9.107-3.96
		c1.913-1.583,4.751-0.198,3.102,2.64c-1.848,3.233-8.117,14.122-11.813,20.128c2.838,2.376,5.676,4.619,7.722,4.619
		c1.386,0,4.949-0.264,9.438-11.021C458.23,299.955,461.927,300.219,460.54,304.113z M435.265,309.393
		c-1.518-1.387-2.706-2.441-3.63-2.441c-1.254,0-2.178,1.385-2.243,3.497c-0.066,1.782,0.792,2.772,1.979,2.772
		C432.361,313.221,433.747,311.702,435.265,309.393z"/>
	<path fill="#010202" d="M478.562,287.482c-1.32,7.061-3.96,20.393-5.742,29.367c1.849,0.132,3.63,0.594,3.63,1.98
		c0,0.791-0.726,1.649-1.979,1.649c-0.198,0-1.254-0.198-2.31-0.265l-1.057,5.28c-1.122,5.214-3.365,8.052-7.655,8.052
		c-3.365,0-5.543-2.442-5.543-5.742c0-7.127,5.609-10.229,11.021-10.889c0.594-2.706,1.188-5.808,1.782-8.91
		c-1.98,4.555-4.95,8.712-8.646,8.712c-4.422,0-5.147-3.497-5.147-7.722c0-6.665,1.914-17.554,3.695-22.636
		c0.33-0.99,1.254-1.584,2.178-1.584c1.122,0,2.112,0.924,1.65,3.036c-2.376,9.438-3.563,16.631-3.563,20.92
		c0,3.168,0.33,4.422,1.649,4.422c1.65,0,6.863-5.346,12.011-26.068c0.528-2.112,1.716-2.706,2.376-2.706
		C478.101,284.38,479.024,285.437,478.562,287.482z M467.211,325.1l0.99-4.62c-4.158,0.924-6.401,3.96-6.401,6.863
		c0,2.046,1.188,2.442,1.848,2.442C465.627,329.785,466.749,327.343,467.211,325.1z"/>
	<path fill="#010202" d="M516.312,295.6c0,10.163-4.158,21.184-11.945,21.184c-3.233,0-5.411-2.045-6.335-4.816
		c-1.32,7.391-2.179,12.473-2.904,17.355c-0.396,2.706-4.224,2.311-3.894-0.396c0.462-3.96,4.092-25.474,7.985-43.028
		c0.594-2.706,4.619-2.112,3.894,1.056l-0.33,1.386c1.782-1.848,3.96-3.102,6.336-3.102
		C513.937,285.238,516.312,289.528,516.312,295.6z M512.286,296.589c0-5.741-1.583-7.787-3.365-7.787
		c-3.102,0-7.722,5.741-9.173,13.463l-0.133,0.791c0.99-0.132,2.046,0.528,1.519,2.641c-0.924,3.695,0.726,7.457,3.233,7.457
		C509.053,313.154,512.286,302.99,512.286,296.589z"/>
	<path fill="#010202" d="M527.729,289.264c-2.178,7.721-3.3,14.716-3.3,18.875c0,3.299,0.858,4.949,2.112,4.949
		c1.583,0,5.411-1.188,10.889-13.66c0.396-0.924,1.056-1.453,1.848-1.453c0.99,0,2.112,1.056,1.386,2.97
		c-5.081,13.529-11.021,15.772-14.387,15.772c-4.487,0-5.873-3.96-5.873-7.985c0-6.6,1.452-13.661,3.3-20.59
		C524.628,284.776,528.72,285.634,527.729,289.264z M533.735,275.735c0,3.3-2.706,5.016-5.082,5.016
		c-2.441,0-4.554-1.584-4.554-4.752c0-2.706,1.848-4.883,4.752-4.949C532.02,270.984,533.735,273.293,533.735,275.735z
		 M527.069,275.801c0,0.99,0.462,1.848,1.782,1.848c0.857,0,1.781-0.66,1.781-1.848c0-1.056-0.659-1.848-1.781-1.848
		C528.06,273.954,527.069,274.547,527.069,275.801z"/>
	<path fill="#010202" d="M578.811,298.767c-1.914,0.594-4.752,0.858-7.854,0.924c-0.396,1.254-0.857,2.508-1.319,3.629
		c-3.63,8.844-8.052,13.463-12.539,13.463c-3.696,0-5.279-4.025-5.808-9.371c-3.3,9.041-7.457,9.371-8.777,9.306
		c-4.224-0.198-5.478-5.411-5.478-10.031c0-7.721,2.706-17.291,3.96-20.854c0.396-1.122,1.188-1.584,1.913-1.584
		c1.254,0,2.376,1.188,1.849,2.904c-1.849,5.874-3.828,14.188-3.828,20.128c0,4.487,1.188,5.874,2.046,5.874
		c2.771,0,7.59-12.209,9.107-20.458c0.396-2.046,1.386-5.412,1.848-6.6c0.396-0.99,1.122-1.386,1.848-1.386
		c1.188,0,2.31,1.122,1.848,2.838c-1.848,6.863-2.64,12.737-2.64,17.092c0,5.279,1.056,8.58,2.508,8.58
		c2.178,0,6.006-4.885,8.447-11.484l0.924-2.639c-3.432-1.123-6.533-3.96-6.533-9.306c0-2.904,1.122-5.741,2.244-7.127
		c1.584-1.979,3.233-2.375,4.686-2.375c3.63,0,5.741,3.432,5.741,7.391c0,2.508-0.396,5.346-1.056,8.183
		c2.178-0.132,4.422-0.462,6.071-0.726C580.593,294.676,581.517,298.042,578.811,298.767z M567.922,295.335
		c1.583-6.203,1.781-11.417-0.792-11.417c-1.519,0-2.838,2.838-2.838,5.676C564.292,292.828,565.81,294.609,567.922,295.335z"/>
	<path fill="#010202" d="M597.161,296.854c0,10.229-4.554,19.864-11.812,19.864c-5.147,0-7.193-4.355-7.193-9.306
		c0-2.903,0.462-6.071,1.188-8.711c-0.198,0.066-0.396,0.132-0.594,0.132c-0.858,0-1.716-0.858-1.518-2.244
		c0.726-5.808,5.807-12.011,11.614-12.011C593.796,284.579,597.161,288.934,597.161,296.854z M593.201,296.458
		c0-5.082-1.716-8.315-4.883-8.315c-2.376,0-5.214,2.838-6.731,6.335c0.264-0.132,0.527-0.198,0.792-0.198
		c1.188,0,2.178,1.188,1.518,2.837c-1.254,4.092-1.782,7.457-1.782,10.098c0,3.762,1.188,5.939,3.564,5.939
		C589.638,313.154,593.201,304.971,593.201,296.458z"/>
	<path fill="#010202" d="M291.584,379.75c-3.102,2.705-7.656,6.07-12.605,7.522c-2.111,4.95-5.676,8.777-10.361,8.777
		c-5.741,0-7.919-4.884-7.919-11.747c0-7.26,2.112-19.072,7.062-33.986c0.66-1.914,1.716-2.442,2.574-2.442
		c1.319,0,2.243,1.386,1.518,3.497c-1.584,4.62-3.234,10.031-4.62,15.641c1.584-1.979,3.63-3.299,6.138-3.299
		c3.959,0,8.051,2.97,8.051,12.011c0,2.243-0.33,4.686-0.924,7.062c2.971-1.518,5.939-3.828,8.777-6.27
		C291.715,374.404,294.289,377.308,291.584,379.75z M274.161,388.064h-0.065c-4.818,0-7.92-1.65-9.306-5.082v1.453
		c0,4.816,1.056,8.051,3.96,8.051C270.531,392.486,272.577,390.771,274.161,388.064z M267.562,377.439
		c0,5.543,3.036,7.127,6.534,7.127c0.594,0,1.188-0.065,1.781-0.131c0.924-2.641,1.518-5.676,1.518-8.844
		c0-5.016-1.584-8.381-4.025-8.381C269.938,367.211,267.562,372.886,267.562,377.439z"/>
	<path fill="#010202" d="M315.08,382.191c-3.168,7.787-10.031,14.123-17.027,14.123c-8.051,0-9.107-7.393-9.107-13.266
		c0-9.041,4.62-19.336,11.945-19.336c3.63,0,5.873,2.838,5.873,6.731c0,6.269-4.686,14.452-13.858,14.65
		c0.33,4.29,1.782,7.854,5.081,7.722c4.818-0.133,9.701-4.29,13.793-12.209c0.528-1.254,1.32-1.716,2.047-1.716
		C314.881,378.892,315.871,380.079,315.08,382.191z M292.905,381.729c6.6-0.197,9.899-7.193,9.899-10.625
		c0-2.838-1.057-3.762-2.178-3.762C296.932,367.342,293.367,374.668,292.905,381.729z"/>
	<path fill="#010202" d="M349.004,383.312c-2.508,6.93-6.336,12.672-12.474,12.672c-3.894,0-7.325-2.442-10.097-4.885
		c-3.102,4.422-5.082,4.885-6.996,4.885c-2.838,0-5.411-1.717-5.411-6.006c0-4.554,2.376-7.457,6.071-7.457
		c1.65,0,3.63,1.254,5.676,2.771l1.584-2.641c2.64-4.619,4.355-7.984,6.137-11.219c-2.045,0.924-4.421,1.188-5.477,1.188
		c-3.96,0-8.646-1.386-8.646-6.006c0-1.649,0.792-2.903,2.243-2.903c0.99,0,1.717,0.924,1.717,1.979
		c0,2.772,3.233,3.103,4.949,3.103c2.046,0,5.279-0.793,9.107-3.961c1.914-1.583,4.752-0.197,3.102,2.641
		c-1.848,3.233-8.117,14.123-11.812,20.128c2.837,2.376,5.675,4.62,7.721,4.62c1.386,0,4.949-0.265,9.438-11.021
		C346.693,379.155,350.389,379.42,349.004,383.312z M323.728,388.593c-1.519-1.386-2.706-2.442-3.63-2.442
		c-1.254,0-2.178,1.387-2.244,3.498c-0.065,1.781,0.793,2.771,1.98,2.771C320.824,392.42,322.209,390.902,323.728,388.593z"/>
	<path fill="#010202" d="M396.391,383.312c-2.508,6.93-6.336,12.672-12.474,12.672c-3.894,0-7.325-2.442-10.097-4.885
		c-3.102,4.422-5.082,4.885-6.996,4.885c-2.838,0-5.411-1.717-5.411-6.006c0-4.554,2.376-7.457,6.071-7.457
		c1.65,0,3.63,1.254,5.676,2.771l1.584-2.641c2.64-4.619,4.355-7.984,6.137-11.219c-2.045,0.924-4.421,1.188-5.477,1.188
		c-3.96,0-8.646-1.386-8.646-6.006c0-1.649,0.792-2.903,2.243-2.903c0.99,0,1.717,0.924,1.717,1.979
		c0,2.772,3.233,3.103,4.949,3.103c2.046,0,5.279-0.793,9.107-3.961c1.914-1.583,4.752-0.197,3.102,2.641
		c-1.848,3.233-8.117,14.123-11.812,20.128c2.837,2.376,5.675,4.62,7.721,4.62c1.386,0,4.949-0.265,9.438-11.021
		C394.08,379.155,397.775,379.42,396.391,383.312z M371.114,388.593c-1.519-1.386-2.706-2.442-3.63-2.442
		c-1.254,0-2.178,1.387-2.244,3.498c-0.065,1.781,0.793,2.771,1.98,2.771C368.211,392.42,369.596,390.902,371.114,388.593z"/>
	<path fill="#010202" d="M427.739,381.795c-2.705,8.051-7.985,14.52-13.265,14.52c-2.573,0-5.411-1.057-6.203-7.128
		c-1.848,3.696-4.422,6.863-8.25,6.863c-4.816,0-7.193-4.29-7.193-10.36c0-10.164,4.158-21.186,11.945-21.186
		c3.102,0,5.147,2.047,6.071,4.752c0.33-1.319,0.727-2.508,1.122-3.498c0.462-1.385,1.386-2.045,2.31-2.045
		c1.188,0,2.311,1.254,1.65,3.299c-2.838,8.844-3.894,16.037-3.894,19.667c0,5.016,1.254,6.138,2.441,6.138
		c2.112,0,6.203-2.706,10.163-13.001c0.462-1.188,1.056-1.584,1.782-1.584C427.409,378.231,428.598,379.287,427.739,381.795z
		 M408.535,378.957l0.132-0.594c-0.989,0.198-1.979-0.132-1.716-1.254c1.32-5.213,0.33-8.975-2.178-8.975
		c-4.686,0-7.919,10.162-7.919,16.564c0,5.741,1.386,7.787,3.167,7.787C403.123,392.486,407.149,385.623,408.535,378.957z"/>
	<path fill="#010202" d="M458.825,379.551c-3.233,9.107-8.777,16.434-14.452,16.434c-4.29,0-6.863-6.27-6.863-12.672
		c-5.676,9.701-8.184,12.672-10.955,12.672c-2.442,0-3.036-1.98-3.036-4.422c0-9.107,5.346-33.262,8.184-42.039
		c0.462-1.385,1.451-1.848,2.375-1.848c1.32,0,2.179,1.32,1.65,2.971c-4.157,13.594-7.985,33.92-8.381,41.312
		c3.167-3.894,8.645-12.868,13.265-24.153c0.197-0.396,1.254-0.727,2.441-0.727c1.65,0,3.498,0.66,3.498,2.574
		c0,2.705-3.96,6.203-5.412,8.645c-0.462,0.727,0.858,14.123,3.432,14.123c1.584,0,5.478-2.375,10.823-14.057
		c0.33-0.66,0.99-1.65,2.112-1.65C458.43,376.713,459.485,377.703,458.825,379.551z"/>
	<path fill="#010202" d="M479.616,395.588c-0.396,1.518-0.594,2.97-0.594,4.092c0,1.584,0.396,2.706,1.386,2.706
		c1.254,0,2.244-1.122,3.234-2.442c0.989-1.386,1.848-1.584,2.705-1.188c0.66,0.33,1.254,1.584,0.33,3.035
		c-1.056,1.65-3.102,4.092-6.467,4.092c-3.168,0-4.95-2.376-4.95-6.138c0-1.122,0.132-2.31,0.396-3.497
		c-2.376-0.198-4.686-1.65-5.412-7.062c-1.848,3.696-4.421,6.863-8.249,6.863c-4.817,0-7.193-4.29-7.193-10.36
		c0-10.164,4.157-21.186,11.945-21.186c3.102,0,5.147,2.047,6.071,4.752c0.33-1.319,0.726-2.508,1.122-3.498
		c0.462-1.385,1.386-2.045,2.31-2.045c1.188,0,2.31,1.254,1.649,3.299c-2.838,8.844-3.894,16.037-3.894,19.667
		c0,5.016,1.254,6.138,2.442,6.138h0.197c1.914-5.412,5.61-10.229,8.712-10.229c1.848,0,2.375,1.056,2.31,2.442
		C487.602,387.801,484.104,393.542,479.616,395.588z M470.51,378.957l0.132-0.594c-0.99,0.198-1.98-0.132-1.716-1.254
		c1.319-5.213,0.33-8.975-2.178-8.975c-4.686,0-7.92,10.162-7.92,16.564c0,5.741,1.386,7.787,3.168,7.787
		C465.098,392.486,469.123,385.623,470.51,378.957z"/>
	<path fill="#010202" d="M510.305,380.277c-4.157,0.66-7.391,1.716-9.898,2.904c1.056,2.045,1.518,3.959,1.518,5.939
		c0,4.553-2.903,7.193-6.665,7.193c-2.706,0-5.544-2.178-5.544-6.006c0-1.584,0.66-5.148,5.016-8.25
		c-2.112-2.838-4.422-5.477-4.487-8.711c0-5.213,4.421-9.833,10.163-9.833c2.771,0,5.675,1.649,5.675,6.6
		c0,1.979-0.594,3.762-2.31,3.762c-1.914-0.066-1.584-1.914-1.584-3.762c0-2.046-0.989-2.706-2.111-2.706
		c-3.168,0-5.874,2.771-5.874,5.873c0,2.047,1.98,3.961,3.696,6.072l0.462,0.594c2.771-1.386,6.467-2.705,11.482-3.498
		C512.482,376.054,513.274,379.815,510.305,380.277z M497.964,389.846c0-1.648-0.462-3.102-1.122-4.486
		c-2.178,1.781-3.167,3.629-3.167,5.016c0,1.254,0.659,2.375,2.046,2.375C497.502,392.75,497.964,390.836,497.964,389.846z"/>
	<path fill="#010202" d="M544.755,379.551c-3.233,9.107-8.777,16.434-14.452,16.434c-4.29,0-6.863-6.27-6.863-12.672
		c-5.676,9.701-8.184,12.672-10.955,12.672c-2.442,0-3.036-1.98-3.036-4.422c0-9.107,5.346-33.262,8.184-42.039
		c0.462-1.385,1.451-1.848,2.375-1.848c1.32,0,2.179,1.32,1.65,2.971c-4.157,13.594-7.985,33.92-8.381,41.312
		c3.167-3.894,8.645-12.868,13.265-24.153c0.197-0.396,1.254-0.727,2.441-0.727c1.65,0,3.498,0.66,3.498,2.574
		c0,2.705-3.96,6.203-5.412,8.645c-0.462,0.727,0.858,14.123,3.432,14.123c1.584,0,5.478-2.375,10.823-14.057
		c0.33-0.66,0.99-1.65,2.112-1.65C544.359,376.713,545.415,377.703,544.755,379.551z"/>
	<path fill="#010202" d="M548.389,368.465c-2.178,7.721-3.3,14.717-3.3,18.874c0,3.3,0.858,4.949,2.112,4.949
		c1.583,0,5.411-1.188,10.889-13.661c0.396-0.924,1.056-1.451,1.848-1.451c0.99,0,2.112,1.056,1.386,2.97
		c-5.081,13.528-11.021,15.772-14.387,15.772c-4.487,0-5.873-3.96-5.873-7.985c0-6.6,1.451-13.661,3.3-20.591
		C545.287,363.977,549.379,364.834,548.389,368.465z M554.395,354.936c0,3.3-2.706,5.016-5.082,5.016
		c-2.441,0-4.554-1.584-4.554-4.752c0-2.705,1.848-4.883,4.752-4.949C552.679,350.184,554.395,352.494,554.395,354.936z
		 M547.729,355.002c0,0.989,0.462,1.848,1.782,1.848c0.857,0,1.781-0.66,1.781-1.848c0-1.057-0.659-1.848-1.781-1.848
		C548.719,353.154,547.729,353.748,547.729,355.002z"/>
	<path fill="#010202" d="M575.646,391.893c0,3.299-2.706,5.016-5.081,5.016c-2.442,0-4.554-1.584-4.554-4.752
		c0-2.705,1.848-4.884,4.751-4.949C573.93,387.141,575.646,389.451,575.646,391.893z M568.98,391.958
		c0,0.99,0.462,1.849,1.781,1.849c0.858,0,1.782-0.66,1.782-1.849c0-1.056-0.66-1.848-1.782-1.848
		C569.97,390.11,568.98,390.704,568.98,391.958z M578.483,351.636c-2.64,16.895-3.365,20.921-4.422,29.368
		c-0.197,1.583-1.056,2.375-2.111,2.375c-0.99,0-2.046-0.792-1.848-2.574c0.594-4.487,2.837-21.117,4.686-30.555
		c0.264-1.057,1.188-1.584,1.979-1.584C577.955,348.666,578.813,349.722,578.483,351.636z"/>
</g>
</svg>
